<?xml version="1.0" standalone="no"?>
<!DOCTYPE svg PUBLIC "-//W3C//DTD SVG 20010904//EN"
 "http://www.w3.org/TR/2001/REC-SVG-20010904/DTD/svg10.dtd">
<svg version="1.0" xmlns="http://www.w3.org/2000/svg"
 width="300.000000pt" height="300.000000pt" viewBox="0 0 300.000000 300.000000"
 preserveAspectRatio="xMidYMid meet">
<metadata>
Created by potrace 1.10, written by Peter Selinger 2001-2011
</metadata>
<g transform="translate(0.000000,300.000000) scale(0.100000,-0.100000)"
fill="#000000" stroke="none">
<path d="M1350 2439 c-120 -7 -268 -24 -319 -36 l-24 -6 6 -241 c8 -296 23
-417 63 -513 4 -9 -3 -13 -20 -13 -14 0 -40 -13 -58 -29 l-32 -28 42 -48 c48
-54 52 -81 22 -140 -11 -21 -18 -41 -15 -43 9 -9 45 65 45 93 l1 30 19 -23 19
-22 25 25 c55 55 104 17 91 -71 -11 -75 -18 -79 -116 -59 -202 42 -289 29
-289 -45 0 -27 -1 -28 -37 -19 -60 14 -136 11 -161 -7 -20 -14 -22 -23 -22
-105 0 -89 0 -89 31 -108 92 -56 309 -20 438 72 l47 34 89 -20 c129 -29 479
-29 609 0 l90 20 54 -38 c104 -73 262 -111 368 -89 82 17 94 33 94 130 0 103
-14 120 -98 120 -31 0 -72 -4 -90 -9 -30 -9 -32 -8 -32 17 0 15 -4 32 -8 39
-13 20 -61 33 -127 33 l-63 0 -21 43 c-30 62 -27 90 14 136 19 21 35 45 35 54
0 22 -48 57 -77 57 -16 0 -23 4 -19 13 40 96 55 217 63 513 l6 241 -25 6 c-46
12 -283 36 -388 40 -58 2 -161 0 -230 -4z m150 -24 c0 -9 -9 -15 -24 -15 -13
0 -29 -7 -36 -15 -11 -14 -10 -14 14 -5 39 14 46 6 46 -51 0 -54 15 -64 31
-22 8 22 6 32 -11 56 -26 35 -18 47 17 27 52 -29 47 -115 -8 -154 -23 -16 -24
-15 -27 1 -3 17 -16 51 -32 83 -4 8 -20 15 -36 15 -28 0 -29 -2 -32 -48 -2
-27 -9 -50 -16 -53 -8 -3 -11 -16 -8 -34 3 -19 0 -30 -8 -30 -8 0 -10 17 -5
64 7 62 6 65 -19 81 -19 12 -37 16 -63 12 -62 -11 -71 -28 -75 -150 -2 -59 0
-107 3 -107 10 0 19 27 20 58 l1 27 8 -27 c5 -17 4 -39 -2 -57 -11 -26 -13
-27 -30 -12 -10 8 -18 24 -18 35 0 15 -3 17 -11 9 -12 -12 4 -53 21 -53 6 0
10 -7 10 -15 0 -20 -24 -19 -44 1 -13 12 -16 41 -16 149 0 74 -4 145 -10 159
-11 30 -35 33 -68 10 -29 -20 -27 -67 3 -73 16 -3 17 -1 7 11 -13 16 -7 28 14
28 10 0 14 -32 16 -125 3 -111 1 -124 -14 -129 -21 -5 -25 -51 -6 -62 8 -5 9
-2 5 9 -9 24 18 22 43 -3 11 -11 31 -20 45 -20 30 0 32 -11 5 -35 -21 -19 -27
-79 -14 -143 6 -28 9 -30 35 -25 34 7 99 -4 99 -17 0 -5 -13 -4 -30 1 -39 14
-132 -5 -156 -32 -21 -23 -21 -71 1 -102 l15 -21 0 20 c0 12 9 33 21 48 11 14
16 26 10 26 -5 0 -16 -9 -24 -21 -19 -26 -30 -9 -18 24 14 36 28 42 109 43 40
1 76 5 80 9 14 14 -33 35 -79 35 -44 0 -47 2 -53 31 -10 52 -7 74 14 97 25 26
33 27 54 6 12 -12 13 -20 6 -35 -13 -24 -45 -25 -60 -1 -10 15 -10 15 -8 -3 2
-14 12 -21 36 -23 26 -3 34 1 41 19 12 33 2 58 -25 65 -33 8 -30 22 4 17 74
-11 74 -12 57 -36 -21 -30 -19 -80 6 -111 26 -33 53 -48 104 -57 l40 -6 -37
-2 c-42 -1 -70 -24 -66 -54 3 -22 64 -62 73 -48 3 5 -9 14 -25 20 -35 12 -47
35 -30 56 18 22 130 21 130 -1 0 -12 -10 -15 -45 -13 -54 4 -82 -15 -44 -29
18 -7 25 -6 27 5 3 11 7 11 18 2 10 -8 14 -8 14 0 0 6 5 11 10 11 6 0 10 -25
10 -57 0 -54 -1 -55 -18 -40 -14 13 -38 17 -91 17 -75 0 -126 15 -150 44 -18
21 -9 29 31 28 26 -1 29 1 16 9 -25 14 -68 0 -68 -21 0 -21 42 -58 77 -66 14
-4 59 -9 101 -13 70 -6 77 -8 92 -34 14 -26 14 -29 -4 -43 -11 -8 -35 -14 -53
-14 -28 0 -33 3 -33 25 0 13 8 29 18 34 10 7 12 11 4 11 -24 0 -53 -21 -62
-46 -5 -13 -18 -24 -28 -24 -23 0 -42 -19 -42 -41 0 -20 26 -49 43 -49 8 0 7
4 -2 9 -8 5 -11 16 -8 25 8 20 27 21 27 2 0 -18 38 -66 53 -66 8 0 7 4 -1 12
-7 7 -12 25 -12 40 0 31 25 38 49 15 11 -10 13 -9 9 3 -7 23 -57 25 -74 3 -12
-17 -13 -17 -14 0 0 12 -8 17 -26 17 -14 0 -23 4 -19 10 3 6 15 10 26 10 11 0
23 10 28 22 l8 23 7 -23 c7 -21 13 -23 59 -21 36 2 52 -1 55 -11 3 -9 -1 -11
-12 -7 -11 4 -19 1 -23 -11 -3 -9 -13 -26 -22 -36 -14 -16 -14 -18 -1 -14 8 2
19 14 25 26 5 12 18 22 27 22 16 0 18 -10 18 -81 0 -94 4 -92 -111 -32 -143
74 -272 213 -309 331 -27 87 -40 215 -47 458 l-6 221 24 6 c47 11 196 28 319
36 69 4 126 9 128 10 1 0 2 -6 2 -14z m187 -2 c22 -5 22 -6 -12 -45 -19 -22
-42 -60 -52 -84 -10 -24 -21 -44 -25 -44 -4 0 -12 -25 -18 -55 -11 -52 -24
-74 -37 -61 -3 3 0 12 7 21 7 8 8 15 2 15 -12 0 -24 -28 -17 -40 3 -4 -1 -13
-9 -19 -11 -9 -14 -1 -15 46 -1 52 1 59 33 88 37 34 52 71 42 108 -7 31 -36
63 -61 69 -11 3 16 6 60 6 44 1 90 -1 102 -5z m138 -13 c4 -6 -8 -10 -30 -10
-25 0 -43 -8 -60 -25 -43 -43 -28 -58 30 -29 l30 14 -35 -5 c-32 -5 -33 -4
-18 11 9 9 30 17 48 19 17 1 36 7 43 14 19 19 23 13 37 -44 10 -43 11 -58 2
-67 -7 -7 -13 -8 -13 -2 -1 5 -2 14 -4 19 -1 6 -3 19 -4 30 -1 16 -3 17 -10 5
-6 -8 -7 -18 -5 -22 3 -4 -2 -18 -10 -30 -10 -15 -12 -26 -6 -39 7 -12 6 -19
-3 -22 -9 -3 -7 -10 6 -23 18 -19 19 -19 33 0 19 26 18 33 -6 39 -12 3 -20 14
-20 27 0 19 2 20 15 10 37 -31 58 22 35 87 l-10 28 20 -24 c11 -13 20 -38 20
-55 0 -39 8 -50 27 -35 18 15 18 -9 0 -30 -9 -10 -12 -33 -9 -64 3 -39 6 -46
18 -36 19 16 19 -9 0 -30 -20 -23 -32 -105 -15 -99 9 3 13 17 11 40 -2 21 2
39 11 46 23 19 3 -92 -22 -124 -12 -15 -21 -40 -21 -56 0 -25 3 -28 21 -23 19
6 20 5 9 -15 -6 -11 -17 -23 -25 -26 -7 -3 -16 -17 -20 -32 -3 -15 -8 -35 -11
-44 -4 -12 -1 -16 8 -13 7 3 14 19 15 37 2 27 16 47 33 48 3 0 3 -21 1 -47 -2
-33 -6 -42 -11 -29 -6 18 -7 19 -13 2 -4 -10 -3 -24 2 -30 7 -8 5 -27 -5 -55
-25 -74 -44 -103 -61 -97 -12 5 -14 1 -10 -14 3 -13 0 -20 -10 -20 -8 0 -11
-5 -7 -11 3 -6 2 -14 -3 -18 -5 -3 -16 -16 -24 -28 -29 -42 -231 -168 -254
-159 -8 3 -15 1 -15 -5 0 -6 -5 -7 -10 -4 -6 4 -10 34 -8 68 l2 62 46 -1 c90
-3 139 41 111 102 -14 32 -29 30 -42 -3 l-11 -28 -14 35 -14 35 6 -32 c5 -29
3 -33 -16 -33 -18 0 -21 4 -16 23 3 12 6 28 6 35 0 6 6 12 14 12 7 0 25 11 39
24 l25 23 22 -29 c34 -46 59 -51 132 -24 58 21 63 25 61 51 -3 38 13 66 35 59
14 -5 15 -4 2 5 -10 7 -11 11 -2 11 6 0 12 5 12 10 0 20 -42 -16 -61 -52 -18
-35 -18 -38 -2 -38 23 0 1 -23 -24 -25 -10 -1 -28 -7 -40 -13 -46 -25 -93 -10
-112 37 -10 22 -10 34 -1 50 16 31 56 54 79 46 22 -7 37 -45 27 -70 -7 -19
-52 -20 -59 -1 -8 19 3 28 19 15 16 -13 31 8 16 23 -18 18 -54 -10 -50 -39 4
-36 30 -51 61 -34 29 16 71 86 63 106 -3 8 -1 15 5 15 6 0 9 6 6 14 -3 8 -1
16 5 18 7 3 8 10 3 17 -6 11 -10 10 -17 -3 -5 -9 -7 -20 -3 -25 3 -5 1 -12 -5
-16 -5 -3 -10 -17 -10 -31 0 -29 -16 -32 -23 -4 -6 24 -54 37 -79 21 -11 -7
-23 -9 -26 -6 -8 8 27 35 45 35 7 0 13 7 13 16 0 14 -4 14 -32 -3 -23 -13 -36
-32 -50 -73 -20 -62 -57 -100 -96 -100 -18 0 -23 -3 -15 -11 15 -15 4 -57 -20
-74 -20 -14 -18 -15 29 -15 54 0 80 13 86 45 4 18 6 17 18 -7 11 -23 10 -31
-4 -53 -15 -23 -23 -25 -87 -25 l-70 0 3 121 3 122 40 4 c23 2 48 13 60 25 20
21 20 21 0 13 -11 -5 -40 -10 -63 -13 -37 -4 -43 -2 -40 13 1 9 20 23 41 30
53 18 65 31 72 78 4 23 14 49 21 58 13 15 12 17 -6 22 -26 7 -26 38 0 68 l19
24 1 -26 c0 -40 24 -55 55 -35 27 18 34 39 10 30 -21 -9 -30 22 -15 54 l13 27
6 -25 c5 -16 15 -26 30 -28 19 -3 22 0 18 13 -4 9 -3 13 2 10 5 -3 12 -1 15 4
3 5 -3 11 -14 14 -14 4 -19 13 -17 35 2 29 27 35 27 6 0 -20 30 -17 46 4 18
23 17 30 -3 28 -13 -1 -20 9 -24 34 -7 38 -13 31 -9 -10 1 -14 6 -30 11 -36
15 -19 -2 -23 -20 -5 -19 19 -21 75 -3 93 22 22 12 32 -11 10 -12 -11 -44 -30
-70 -42 -26 -12 -47 -23 -47 -25 0 -2 -3 -10 -6 -19 -9 -23 14 -20 69 8 26 13
47 21 47 19 0 -15 -45 -65 -74 -83 -27 -16 -167 -70 -183 -70 -2 0 -3 8 -3 17
0 9 21 35 46 58 36 31 47 48 48 72 0 17 4 29 7 27 3 -2 11 13 17 34 17 56 67
130 104 152 35 21 93 27 103 10z m136 -32 c15 -22 6 -201 -10 -206 -14 -5 -12
36 4 101 6 21 4 27 -8 27 -9 0 -20 16 -27 38 -7 20 -19 44 -27 54 -13 15 -11
16 23 8 20 -5 41 -15 45 -22z m-831 -34 c0 -13 -3 -14 -14 -5 -11 10 -20 10
-38 0 -21 -11 -22 -11 -9 4 18 22 61 22 61 1z m387 -21 c-3 -10 -5 -4 -5 12 0
17 2 24 5 18 2 -7 2 -21 0 -30z m-63 11 c9 -3 16 -17 16 -29 0 -13 5 -27 10
-30 6 -3 10 -14 9 -23 0 -12 -3 -11 -9 6 -5 12 -17 25 -25 28 -11 4 -14 13 -9
28 5 16 3 18 -5 10 -7 -6 -15 -39 -19 -74 -4 -35 -12 -65 -18 -67 -13 -4 -16
45 -3 53 5 3 9 25 9 49 0 25 5 45 13 48 6 3 13 6 14 6 1 1 8 -2 17 -5z m-108
-26 c5 -7 8 -39 9 -72 0 -45 4 -61 18 -70 29 -18 51 4 57 59 3 27 10 50 16 52
16 5 24 -33 10 -47 -8 -10 -5 -11 17 -6 l27 6 0 -72 0 -73 -50 -28 c-54 -29
-70 -55 -70 -111 0 -42 34 -86 65 -86 41 0 55 -11 55 -41 0 -28 -2 -29 -45
-29 -58 0 -106 20 -133 55 -29 36 -28 70 2 100 24 24 24 25 6 35 -10 5 -35 10
-54 10 -36 0 -36 0 -36 43 0 46 13 67 42 67 23 0 35 -27 19 -43 -9 -9 -14 -8
-21 3 -9 13 -10 13 -10 0 0 -24 21 -40 51 -40 37 0 69 42 68 89 0 34 -1 35
-10 11 -13 -33 -30 -42 -49 -26 -8 7 -28 18 -45 23 -30 9 -30 11 -33 86 -3 77
-3 77 23 77 16 0 25 -6 25 -15 0 -8 -5 -15 -11 -15 -5 0 -7 -4 -4 -10 3 -5 15
-10 26 -10 13 0 19 7 19 24 0 13 5 26 12 28 7 3 6 7 -5 11 -12 4 -17 1 -17
-10 0 -13 -2 -13 -16 -2 -24 20 -46 20 -61 1 -11 -15 -12 -15 -13 -1 0 8 5 20
12 27 16 16 95 15 104 0z m504 -93 c0 -8 -4 -15 -10 -15 -5 0 -10 7 -10 15 0
8 5 15 10 15 6 0 10 -7 10 -15z m-90 -1 c0 -8 -91 -47 -96 -41 -3 3 12 14 33
25 39 20 63 26 63 16z m-16 -116 c3 -16 2 -28 -3 -28 -10 0 -21 47 -13 55 7 7
8 5 16 -27z m-59 -53 c0 -27 -4 -44 -10 -42 -5 2 -10 16 -10 31 1 21 -3 26
-19 24 -10 -2 -24 -12 -30 -23 -6 -11 -15 -23 -21 -27 -6 -5 -4 -18 6 -36 12
-22 13 -34 5 -59 -17 -50 -23 -47 -18 7 4 44 1 55 -19 76 -14 15 -31 23 -41
21 -10 -3 -18 -1 -18 3 0 5 13 11 30 15 16 4 32 11 35 16 4 5 16 9 28 9 12 1
33 7 47 15 35 20 35 20 35 -30z m-329 8 c-15 -12 -32 -23 -39 -23 -7 1 -1 7
13 15 19 11 21 14 8 15 -32 0 -19 17 14 17 l31 0 -27 -24z m-160 -33 c13 0 24
-4 24 -9 0 -15 -63 7 -77 26 -22 29 -14 37 8 9 12 -15 30 -26 45 -26z m294 31
c0 -5 -14 -15 -30 -23 -19 -8 -34 -25 -41 -46 -13 -39 -5 -82 16 -82 8 0 15
-5 15 -11 0 -6 7 -9 15 -6 8 4 17 2 20 -3 4 -6 -5 -10 -19 -10 -14 0 -26 5
-26 11 0 5 -5 7 -11 3 -33 -20 -41 104 -9 136 11 11 27 20 35 20 8 0 15 5 15
10 0 6 5 10 10 10 6 0 10 -4 10 -9z m10 -34 c0 -8 -9 -22 -20 -32 -11 -10 -20
-25 -20 -33 0 -9 7 -6 20 9 l19 24 1 -42 c0 -36 -3 -43 -19 -43 -40 0 -51 11
-51 50 0 30 6 43 26 59 31 24 44 26 44 8z m70 -36 c26 -49 2 -114 -45 -123
-21 -4 -25 -1 -25 18 0 13 8 25 19 29 11 3 22 13 25 21 8 20 -11 54 -29 54 -8
0 -15 5 -15 10 0 19 59 11 70 -9z m383 -28 c-3 -21 -11 -33 -20 -33 -13 0 -13
3 -3 15 7 9 10 18 7 22 -4 3 -2 12 5 20 15 18 17 14 11 -24z m-423 -14 c0 -28
-15 -23 -18 7 -1 14 2 23 8 19 6 -3 10 -15 10 -26z m49 -100 c-13 -9 -27 -15
-31 -13 -3 2 -9 0 -13 -6 -9 -15 -25 -12 -25 5 0 17 58 44 79 37 10 -4 7 -10
-10 -23z m-454 -261 c70 -93 68 -88 50 -82 -9 4 -29 -3 -45 -15 -16 -11 -31
-21 -33 -21 -2 0 -28 27 -56 60 -45 52 -51 63 -40 76 15 18 45 32 69 33 9 1
34 -23 55 -51z m853 32 c17 -11 32 -22 32 -26 0 -13 -115 -134 -118 -124 -6
17 -61 42 -75 33 -7 -4 0 9 14 28 92 125 90 123 147 89z m-103 -156 l25 -27
20 24 19 24 1 -34 c0 -18 9 -48 20 -67 24 -38 27 -35 -74 -53 -79 -15 -75 -16
-92 24 -42 101 16 179 81 109z m-481 -104 c42 -22 90 -40 106 -40 36 0 167 67
225 114 l43 35 0 -48 c0 -26 5 -57 11 -69 6 -11 11 -25 11 -30 0 -27 -331 -41
-493 -21 -84 11 -88 13 -81 33 4 12 8 48 8 82 l1 61 45 -38 c26 -21 81 -57
124 -79z m-320 -40 c12 -9 16 -31 16 -76 0 -54 -3 -64 -17 -64 -15 0 -17 8
-15 50 2 27 0 50 -5 50 -4 0 -7 -20 -5 -45 3 -28 0 -45 -7 -45 -6 0 -12 22
-12 53 l-2 52 -9 -51 -10 -50 -52 4 c-28 2 -70 -1 -93 -6 l-43 -10 0 61 c0 93
11 100 137 95 62 -3 108 -10 117 -18z m1086 5 c7 -8 15 -44 18 -80 l5 -66 -29
8 c-16 4 -63 8 -106 7 l-76 0 -6 29 c-4 22 -1 33 11 43 17 12 16 13 -4 14 -14
0 -23 6 -23 15 0 8 -4 15 -9 15 -5 0 -7 -9 -4 -20 4 -14 0 -20 -11 -20 -9 0
-16 5 -16 10 0 6 -7 10 -16 10 -28 0 11 29 53 39 66 16 199 13 213 -4z m-962
-25 c29 -5 69 -10 88 -10 30 0 33 -2 26 -17 -5 -10 -9 -35 -8 -56 1 -21 -2
-41 -6 -43 -4 -3 -8 -10 -8 -15 0 -6 5 -7 10 -4 6 3 10 1 10 -4 0 -15 -29 -14
-130 6 l-87 16 9 41 c5 23 7 56 4 74 -4 29 -3 32 17 27 12 -2 46 -9 75 -15z
m652 -5 c7 -8 21 -15 31 -15 11 0 19 -6 19 -14 0 -10 8 -13 25 -10 22 4 25 1
25 -26 0 -16 0 -33 1 -37 0 -4 -4 -9 -10 -11 -6 -2 -11 5 -11 16 0 10 -10 30
-23 44 -24 26 -57 43 -57 29 0 -21 13 -41 26 -41 8 0 14 -4 14 -10 0 -5 -6 -8
-12 -6 -7 1 -10 1 -5 -1 4 -3 5 -9 1 -14 -7 -13 10 -11 23 2 7 7 12 6 17 -6 3
-9 0 -18 -7 -20 -14 -6 -241 -45 -242 -42 0 1 -6 17 -12 36 -14 39 -8 58 13
40 11 -9 14 -9 14 0 0 22 -21 52 -43 61 -19 8 -18 9 13 10 19 1 67 7 105 14
39 8 73 14 76 15 4 0 12 -6 19 -14z m-470 -41 c0 -14 -4 -23 -10 -19 -5 3 -10
2 -10 -4 0 -5 5 -13 11 -17 8 -4 8 -9 -1 -18 -15 -15 -30 10 -28 51 1 25 6 33
20 33 13 0 18 -7 18 -26z m211 -1 c-13 -8 -21 -25 -21 -41 0 -16 3 -22 8 -15
14 23 33 -2 26 -35 l-6 -32 -139 0 c-86 0 -139 4 -139 10 0 6 7 10 15 10 20 0
19 7 -5 32 -10 12 -16 26 -13 31 3 6 10 0 15 -12 5 -16 15 -21 30 -19 18 2 25
13 32 45 l10 42 95 3 c110 3 120 1 92 -19z m-845 6 l63 -11 3 -56 3 -57 53 -3
c39 -2 52 -7 52 -19 0 -18 -43 -15 -172 13 -70 15 -94 16 -118 7 l-30 -11 0
41 c0 63 9 85 39 96 35 13 35 13 107 0z m589 2 c3 -5 1 -12 -5 -16 -5 -3 -10
1 -10 9 0 18 6 21 15 7z m1041 -13 c7 -7 16 -39 19 -72 l8 -58 -23 12 c-27 14
-106 7 -187 -16 -56 -16 -118 -16 -118 1 0 6 25 12 55 15 l55 5 3 57 3 57 37
6 c20 4 44 8 52 10 26 6 83 -4 96 -17z m-496 2 c0 -5 -2 -10 -4 -10 -3 0 -8 5
-11 10 -3 6 -1 10 4 10 6 0 11 -4 11 -10z m-230 -9 c0 -5 -7 -14 -15 -21 -18
-15 -47 -6 -40 12 6 15 55 23 55 9z m-722 -83 c3 -15 -4 -18 -47 -18 -54 0
-72 12 -44 29 28 17 87 9 91 -11z m152 6 c15 -16 -128 -89 -212 -109 -75 -18
-170 -18 -218 -2 -27 9 -35 17 -35 37 0 22 5 25 44 28 25 2 87 -7 139 -19 118
-27 142 -20 142 42 l0 42 67 -7 c37 -4 70 -9 73 -12z m560 7 c0 -5 3 -16 6
-25 4 -11 1 -16 -10 -16 -10 0 -16 9 -16 25 0 14 5 25 10 25 6 0 10 -4 10 -9z
m422 -32 c5 -62 19 -67 135 -40 122 27 187 26 191 -5 7 -48 -126 -68 -256 -39
-68 16 -202 81 -209 102 -4 12 27 18 99 21 36 2 37 1 40 -39z m99 30 c31 -16
12 -29 -42 -29 -42 0 -49 3 -49 20 0 16 7 20 36 20 19 0 44 -5 55 -11z"/>
<path d="M1212 1913 c2 -10 10 -18 18 -18 8 0 16 8 18 18 2 12 -3 17 -18 17
-15 0 -20 -5 -18 -17z m28 -3 c0 -5 -2 -10 -4 -10 -3 0 -8 5 -11 10 -3 6 -1
10 4 10 6 0 11 -4 11 -10z"/>
<path d="M1130 1853 c-32 -12 -50 -37 -50 -69 l0 -33 25 24 c13 14 31 25 40
25 10 0 15 10 15 30 0 30 -3 33 -30 23z m20 -23 c0 -6 -11 -15 -24 -20 -13 -5
-26 -15 -29 -22 -4 -9 -6 -7 -6 4 -1 9 9 24 21 32 26 19 38 20 38 6z"/>
<path d="M1185 1731 c-25 -5 -27 -8 -12 -14 10 -4 28 -2 39 4 11 6 37 9 57 5
25 -4 31 -2 21 4 -17 11 -59 11 -105 1z"/>
<path d="M1250 1669 c0 -5 5 -7 10 -4 6 3 10 8 10 11 0 2 -4 4 -10 4 -5 0 -10
-5 -10 -11z"/>
<path d="M1743 2302 c-44 -23 -63 -39 -63 -52 0 -19 2 -19 60 2 32 12 62 28
64 35 4 9 1 10 -12 3 -31 -18 -95 -40 -100 -36 -2 3 21 17 52 32 51 24 74 41
65 48 -2 1 -32 -13 -66 -32z"/>
<path d="M1883 2160 c-3 -17 -9 -33 -14 -36 -4 -2 -6 -11 -2 -19 3 -8 0 -15
-5 -15 -6 0 -9 -15 -8 -32 2 -18 1 -25 -1 -15 -2 9 -9 17 -14 17 -12 0 -11 -4
3 -35 9 -19 9 -28 0 -37 -9 -9 -12 -6 -12 15 0 19 -5 27 -17 27 -13 0 -14 -3
-5 -12 18 -18 15 -27 -7 -21 -16 4 -19 1 -14 -19 6 -20 4 -21 -9 -10 -13 10
-15 8 -14 -18 1 -17 7 -30 14 -30 6 0 12 -5 12 -11 0 -6 -8 -8 -19 -4 -13 4
-20 -1 -25 -17 -7 -22 -7 -22 -15 -3 -5 13 -4 21 3 24 15 5 26 23 20 33 -9 13
-24 9 -18 -5 3 -10 -3 -13 -24 -9 -32 4 -58 -18 -48 -43 8 -23 29 -18 23 5 -6
25 21 28 30 4 4 -12 -5 -26 -28 -46 -39 -34 -34 -33 37 4 99 52 151 142 168
291 6 52 -1 64 -11 17z m-53 -196 c0 -9 -5 -14 -12 -12 -18 6 -21 28 -4 28 9
0 16 -7 16 -16z m-29 -27 c-1 -12 -15 -9 -19 4 -3 6 1 10 8 8 6 -3 11 -8 11
-12z"/>
<path d="M1872 1925 c-7 -14 -12 -32 -12 -40 0 -9 -6 -12 -15 -9 -11 5 -13 2
-8 -12 5 -13 3 -16 -10 -11 -13 5 -17 1 -17 -16 0 -16 -3 -19 -9 -8 -7 11 -10
9 -16 -9 -5 -15 -10 -19 -15 -10 -5 8 -9 7 -14 -6 -4 -9 -2 -22 4 -28 8 -8 9
-5 4 9 -4 11 -3 17 1 13 5 -5 23 3 40 16 25 20 35 22 45 13 10 -10 12 -8 7 6
-4 9 -3 17 2 17 9 0 35 89 28 96 -2 2 -9 -7 -15 -21z"/>
<path d="M1280 2155 c-10 -12 -10 -18 0 -30 7 -9 15 -13 18 -10 3 3 11 0 18
-6 7 -6 18 -8 24 -4 13 8 13 42 0 50 -5 3 -10 -1 -10 -9 0 -9 -7 -16 -15 -16
-18 0 -19 12 -3 28 9 9 8 12 -4 12 -8 0 -21 -7 -28 -15z"/>
<path d="M990 1292 c0 -4 16 -9 36 -10 23 -2 33 1 29 8 -7 12 -65 14 -65 2z"/>
<path d="M986 1239 c-8 -42 -7 -57 3 -39 14 25 22 70 12 70 -4 0 -11 -14 -15
-31z"/>
<path d="M1615 1210 c-16 -7 -17 -9 -3 -9 9 -1 20 4 23 9 7 11 7 11 -20 0z"/>
<path d="M661 825 c-18 -9 -20 -14 -10 -18 8 -3 1 -6 -14 -6 -16 -1 -26 -5
-22 -11 3 -5 13 -6 21 -3 10 4 17 -2 21 -16 3 -11 12 -21 19 -21 21 0 17 -27
-5 -33 -15 -3 -21 1 -24 17 -3 13 -5 9 -6 -13 -1 -30 1 -32 16 -20 13 11 17
11 20 2 9 -26 23 -12 23 21 0 29 3 33 19 29 34 -9 30 12 -5 23 -28 9 -32 9
-23 -2 9 -11 8 -14 -5 -14 -21 0 -18 52 3 61 8 3 10 8 5 11 -5 4 -20 0 -33 -7z"/>
<path d="M916 825 c7 -18 -7 -20 -24 -3 -9 9 -12 8 -12 -6 0 -15 -3 -16 -15
-6 -9 7 -18 10 -21 7 -10 -9 33 -27 53 -22 10 3 5 -1 -12 -9 -16 -8 -24 -15
-16 -16 14 0 7 -15 -7 -15 -15 0 -32 -17 -32 -32 0 -14 3 -14 25 1 24 16 25
16 25 -4 0 -16 7 -20 30 -20 17 0 30 4 30 9 0 4 -11 6 -25 3 -20 -3 -25 0 -25
17 0 11 5 21 11 21 5 0 7 -4 4 -10 -3 -5 -2 -10 4 -10 5 0 11 6 14 13 3 9 8 9
21 -2 12 -10 20 -11 27 -4 12 12 -33 28 -66 24 -11 -2 -16 1 -12 5 4 4 20 10
35 12 35 4 42 12 11 12 -16 0 -20 3 -11 8 13 9 6 42 -9 42 -4 0 -6 -7 -3 -15z"/>
<path d="M1097 820 c4 -16 0 -20 -20 -20 -23 0 -25 -3 -18 -27 5 -18 14 -27
24 -25 13 2 17 -5 17 -33 0 -22 4 -34 10 -30 6 4 8 21 4 41 -5 29 -3 34 12 34
22 0 49 36 34 45 -6 4 -20 3 -31 0 -18 -6 -20 -4 -14 14 4 15 2 21 -8 21 -10
0 -13 -7 -10 -20z m43 -35 c0 -8 -7 -15 -15 -15 -26 0 -18 20 13 29 1 1 2 -6
2 -14z m-40 -10 c0 -8 -4 -15 -10 -15 -5 0 -10 7 -10 15 0 8 5 15 10 15 6 0
10 -7 10 -15z"/>
<path d="M1516 812 c5 -26 3 -31 -17 -35 -24 -4 -24 -4 -1 -6 29 -1 28 -16 -4
-46 -15 -14 -23 -25 -17 -25 5 0 20 11 33 25 l23 24 19 -24 c19 -25 58 -34 58
-15 0 6 -8 10 -18 10 -10 0 -29 11 -42 25 -24 26 -23 28 25 38 12 3 7 5 -12 6
-27 1 -32 5 -30 22 1 12 -4 24 -10 26 -9 3 -11 -4 -7 -25z"/>
<path d="M1723 829 c-15 -15 -4 -59 16 -59 9 0 22 -5 29 -12 9 -9 12 -9 12 0
0 7 -11 17 -24 22 -20 7 -24 15 -20 35 5 28 3 30 -13 14z"/>
<path d="M1759 838 c-6 -12 -4 -48 2 -48 5 0 9 11 9 25 0 21 -6 33 -11 23z"/>
<path d="M1789 838 c-7 -17 -6 -58 1 -58 5 0 17 -3 27 -6 17 -5 17 -5 -1 10
-10 8 -16 22 -13 30 4 9 2 18 -3 21 -6 4 -11 5 -11 3z"/>
<path d="M2310 766 c0 -41 5 -78 10 -81 6 -4 10 23 10 74 0 47 -4 81 -10 81
-6 0 -10 -31 -10 -74z"/>
<path d="M1305 820 c3 -5 10 -10 16 -10 5 0 9 5 9 10 0 6 -7 10 -16 10 -8 0
-12 -4 -9 -10z"/>
<path d="M2042 820 c-12 -5 -30 -7 -40 -4 -11 4 -8 -1 8 -15 22 -18 27 -18 36
-6 14 19 24 19 24 0 0 -9 9 -15 23 -14 15 1 17 3 5 6 -18 5 -33 33 -18 33 6 0
10 -5 10 -11 0 -5 5 -7 10 -4 34 21 -13 33 -58 15z"/>
<path d="M2210 808 c0 -15 -6 -29 -12 -31 -10 -4 -10 -6 0 -6 19 -1 14 -31 -5
-31 -12 0 -14 -3 -6 -11 21 -21 49 9 46 49 -3 43 -23 69 -23 30z"/>
<path d="M1921 802 c-15 -29 -14 -65 4 -88 17 -23 19 -14 3 21 -8 19 -8 31 1
51 14 32 7 44 -8 16z"/>
<path d="M2250 778 c0 -26 -4 -50 -10 -53 -5 -3 -10 -11 -10 -17 0 -7 5 -6 14
1 19 16 31 90 17 104 -8 8 -11 -2 -11 -35z"/>
<path d="M2280 770 c0 -32 4 -49 10 -45 6 3 10 24 10 45 0 21 -4 42 -10 45 -6
4 -10 -13 -10 -45z"/>
<path d="M2383 790 c8 -22 8 -38 0 -60 -7 -17 -7 -28 -2 -24 20 12 28 53 18
84 -6 16 -15 30 -19 30 -5 0 -3 -13 3 -30z"/>
<path d="M690 806 c0 -2 7 -6 15 -10 8 -3 15 -1 15 4 0 6 -7 10 -15 10 -8 0
-15 -2 -15 -4z"/>
<path d="M1304 797 l-41 -10 26 -23 26 -23 -33 -12 c-18 -6 -31 -14 -28 -17 3
-2 19 1 36 8 26 11 33 10 49 -4 20 -18 47 -21 56 -6 3 6 -3 10 -15 10 -12 0
-29 4 -39 10 -25 13 -16 60 10 60 11 0 19 5 19 10 0 11 -9 11 -66 -3z m13 -34
c-3 -3 -11 -2 -17 2 -9 6 -9 10 1 16 14 8 27 -7 16 -18z"/>
<path d="M830 780 c0 -5 5 -10 10 -10 6 0 10 5 10 10 0 6 -4 10 -10 10 -5 0
-10 -4 -10 -10z"/>
<path d="M1985 780 c3 -5 11 -10 16 -10 6 0 7 5 4 10 -3 6 -11 10 -16 10 -6 0
-7 -4 -4 -10z"/>
<path d="M615 759 c-18 -11 -24 -19 -14 -19 9 0 24 9 34 20 22 24 19 24 -20
-1z"/>
<path d="M1696 765 c-3 -8 -1 -15 4 -15 13 0 22 18 11 24 -5 3 -11 -1 -15 -9z"/>
<path d="M2050 766 c0 -9 -6 -14 -12 -12 -7 1 -9 1 -5 -2 5 -2 1 -13 -9 -23
-26 -29 -1 -23 26 6 13 14 32 25 43 25 26 0 20 5 -15 14 -21 5 -28 3 -28 -8z"/>
<path d="M1740 751 c12 -9 10 -11 -13 -11 -16 0 -26 -4 -23 -9 3 -4 17 -6 31
-3 18 3 25 0 25 -12 0 -9 -5 -16 -11 -16 -5 0 -7 -5 -4 -10 9 -15 25 -2 25 21
0 14 7 19 26 19 14 0 22 4 19 10 -3 5 -16 9 -28 8 -12 0 -31 3 -42 7 -16 5
-17 5 -5 -4z"/>
<path d="M1990 746 c-6 -9 -10 -21 -8 -28 3 -8 9 -4 17 10 15 28 9 39 -9 18z"/>
<path d="M2060 731 c-13 -25 -13 -41 0 -41 6 0 10 12 10 27 0 25 1 25 18 10
10 -10 24 -17 32 -17 7 0 1 9 -13 20 -31 25 -34 25 -47 1z"/>
<path d="M204 621 c-11 -11 -2 -19 16 -14 17 4 20 0 20 -24 0 -16 -5 -34 -12
-41 -9 -9 -8 -12 8 -12 17 0 19 6 15 47 -3 42 -1 46 12 35 12 -10 16 -10 21 0
3 7 5 -8 3 -34 -1 -35 2 -48 12 -48 9 0 11 7 7 25 -5 18 -2 25 9 25 9 0 15 -9
15 -25 0 -14 4 -25 9 -25 11 0 9 39 -2 57 -4 7 -15 9 -23 6 -13 -5 -15 -1 -9
16 6 20 3 21 -45 19 -28 -1 -53 -4 -56 -7z"/>
<path d="M458 619 c-21 -12 -24 -62 -5 -77 7 -6 31 -11 53 -10 37 0 40 2 36
24 -3 17 0 24 12 24 10 0 16 -9 16 -25 0 -23 4 -25 44 -25 41 0 43 1 38 25 -3
18 0 25 12 25 10 0 16 -9 16 -24 0 -22 4 -23 53 -24 28 0 57 5 64 10 7 6 14 5
18 -2 8 -13 45 -13 45 0 0 5 -6 7 -14 4 -8 -3 -17 -1 -21 5 -3 7 2 11 14 11
21 0 29 24 12 34 -14 9 -41 -4 -41 -19 0 -8 -8 -11 -20 -8 -11 3 -20 10 -20
15 0 6 7 8 15 4 8 -3 15 -1 15 4 0 13 -27 13 -35 0 -5 -8 -11 -8 -20 0 -19 16
-45 1 -46 -29 -1 -25 -2 -25 -8 4 -3 17 -12 30 -19 29 -6 -1 -18 -2 -26 -2 -8
-1 -17 -14 -19 -29 l-4 -28 -2 28 c0 15 -5 27 -11 27 -5 0 -11 -12 -11 -27 -1
-21 -2 -23 -6 -8 -8 30 -23 44 -40 38 -13 -5 -15 -2 -11 14 5 18 1 21 -31 21
-20 0 -44 -4 -53 -9z m48 -10 c4 -8 9 -7 15 2 6 9 9 0 9 -26 0 -37 -3 -41 -26
-43 -31 -2 -54 13 -54 37 0 33 41 54 56 30z m229 -29 c3 -5 -1 -10 -10 -10 -9
0 -13 5 -10 10 3 6 8 10 10 10 2 0 7 -4 10 -10z m110 0 c3 -5 -1 -10 -10 -10
-9 0 -13 5 -10 10 3 6 8 10 10 10 2 0 7 -4 10 -10z m-55 -30 c0 -4 -17 -6 -37
-4 -50 3 -53 5 -23 13 27 8 60 3 60 -9z"/>
<path d="M888 617 c6 -7 12 -28 14 -47 3 -31 6 -35 33 -35 28 0 30 3 35 48 4
29 2 47 -5 47 -5 0 -10 -19 -10 -42 0 -36 -3 -43 -20 -43 -17 0 -20 7 -20 41
0 32 -4 40 -18 42 -13 0 -16 -3 -9 -11z"/>
<path d="M1055 620 c-3 -5 -1 -10 4 -10 6 0 11 5 11 10 0 6 -2 10 -4 10 -3 0
-8 -4 -11 -10z"/>
<path d="M1545 620 c-12 -19 -11 -90 1 -90 7 0 10 8 7 21 -4 12 0 25 8 30 10
6 10 9 2 9 -7 0 -13 7 -13 16 0 8 5 12 10 9 6 -3 10 -1 10 4 0 14 -17 14 -25
1z"/>
<path d="M1599 617 c15 -15 14 -60 -1 -75 -9 -9 -7 -12 9 -12 16 0 19 5 15 25
-4 22 -1 25 23 25 24 0 27 -3 23 -25 -3 -15 -1 -25 6 -25 8 0 10 13 8 35 -2
19 1 42 8 50 9 11 8 14 -8 12 -13 -1 -18 -7 -14 -19 3 -14 -2 -18 -23 -18 -21
0 -26 4 -23 18 4 13 -1 18 -15 19 -15 2 -17 -1 -8 -10z"/>
<path d="M1929 617 c15 -15 14 -74 -1 -80 -7 -3 -3 -6 9 -6 17 -1 20 3 16 22
l-6 22 25 -22 c33 -31 47 -29 18 2 l-23 25 23 25 c29 31 15 33 -18 3 -24 -22
-25 -22 -20 -3 4 16 0 21 -15 22 -15 2 -17 -1 -8 -10z"/>
<path d="M2281 612 c-11 -21 2 -42 26 -42 7 0 13 -7 13 -15 0 -18 -27 -20 -33
-2 -2 6 -8 9 -12 5 -11 -10 4 -28 24 -28 28 0 46 26 31 45 -7 8 -19 15 -26 15
-17 0 -18 16 -3 26 6 3 16 0 21 -7 8 -12 9 -11 5 1 -6 23 -34 24 -46 2z"/>
<path d="M2343 580 c1 -29 7 -50 13 -50 7 0 9 10 6 25 -3 19 0 25 12 25 12 0
16 -7 14 -22 -3 -21 1 -23 48 -25 49 -1 51 -1 46 23 -3 17 0 24 12 24 10 0 16
-9 16 -25 0 -24 3 -25 59 -25 57 0 58 1 53 25 -2 15 0 25 7 25 6 0 11 -11 11
-25 0 -14 5 -25 10 -25 6 0 10 8 10 18 1 15 1 16 10 1 6 -11 23 -17 43 -17 30
0 33 3 29 24 -3 17 0 24 12 24 10 0 16 -9 16 -25 0 -14 4 -25 9 -25 5 0 6 14
2 32 -6 31 -9 32 -55 34 -35 1 -49 -2 -53 -13 -5 -14 -8 -14 -19 2 -7 9 -17
14 -23 10 -7 -3 -11 2 -11 14 0 12 -6 21 -13 21 -8 0 -11 -13 -9 -43 3 -37 1
-43 -17 -44 -25 -2 -27 10 -6 27 13 11 13 15 3 21 -18 12 -38 11 -38 -1 0 -5
8 -6 18 -3 16 7 16 5 1 -17 -23 -34 -37 -35 -41 -3 -2 21 -9 28 -25 29 -18 1
-23 -4 -23 -25 0 -19 -5 -27 -20 -28 -11 -1 -22 2 -25 8 -4 5 3 9 15 9 15 0
20 5 18 18 -2 9 -12 17 -23 17 -15 0 -21 -8 -24 -30 l-4 -30 -6 30 c-5 20 -12
30 -24 29 -10 -1 -17 5 -17 17 0 11 -4 19 -10 19 -5 0 -8 -22 -7 -50z m102 0
c3 -5 -1 -10 -10 -10 -9 0 -13 5 -10 10 3 6 8 10 10 10 2 0 7 -4 10 -10z m260
0 c3 -5 -1 -10 -9 -10 -9 0 -16 5 -16 10 0 6 4 10 9 10 6 0 13 -4 16 -10z m25
-18 c0 -19 -35 -28 -45 -11 -4 5 3 9 14 9 12 0 21 5 21 10 0 6 2 10 5 10 3 0
5 -8 5 -18z"/>
<path d="M1348 613 c-8 -17 -3 -76 7 -80 6 -2 10 13 8 38 -2 42 -8 57 -15 42z"/>
<path d="M367 594 c-4 -4 -7 -18 -7 -31 0 -27 26 -41 43 -24 9 9 8 11 -4 6
-10 -4 -20 -2 -24 4 -3 7 3 11 15 11 15 0 20 5 18 17 -3 19 -29 29 -41 17z
m28 -14 c3 -5 -1 -10 -10 -10 -9 0 -13 5 -10 10 3 6 8 10 10 10 2 0 7 -4 10
-10z"/>
<path d="M989 596 c-6 -10 -1 -66 6 -66 6 0 11 10 10 23 0 31 19 33 23 2 2
-18 9 -25 26 -25 19 0 22 4 18 30 -2 17 -8 30 -12 30 -4 0 -5 -11 -2 -25 2
-14 0 -25 -6 -25 -6 0 -12 12 -14 28 -2 20 -9 27 -25 28 -13 1 -23 1 -24 0z"/>
<path d="M1092 570 c14 -43 23 -44 41 -5 15 31 15 35 1 35 -8 0 -12 -4 -9 -10
3 -5 1 -18 -4 -27 -10 -17 -11 -16 -12 2 -1 11 -1 23 0 28 0 4 -6 7 -13 7 -12
0 -13 -6 -4 -30z"/>
<path d="M1161 586 c-18 -22 -9 -51 17 -54 12 -2 22 1 22 7 0 6 -6 8 -14 5 -8
-3 -17 -1 -21 5 -3 7 3 11 15 11 15 0 20 5 18 17 -4 22 -22 27 -37 9z m29 -6
c0 -5 -7 -10 -16 -10 -8 0 -12 5 -9 10 3 6 10 10 16 10 5 0 9 -4 9 -10z"/>
<path d="M1228 590 c-18 -7 -23 -60 -5 -60 10 0 13 8 9 26 -4 20 -1 25 9 20 8
-3 22 -9 32 -12 24 -9 22 -28 -3 -21 -11 3 -20 1 -20 -3 0 -5 19 -8 43 -8 42
0 43 0 39 29 -5 35 -22 39 -22 4 0 -25 0 -25 -20 -5 -25 25 -26 34 -3 26 10
-4 14 -3 9 1 -9 9 -48 11 -68 3z"/>
<path d="M1387 564 c17 -34 17 -36 -2 -50 -14 -10 -15 -14 -4 -14 8 0 25 20
37 45 25 52 26 55 12 55 -5 0 -10 -9 -10 -20 0 -11 -4 -20 -10 -20 -5 0 -10 9
-10 20 0 11 -7 20 -15 20 -13 0 -12 -5 2 -36z"/>
<path d="M1471 586 c-19 -23 -4 -58 22 -54 17 2 22 10 22 33 0 34 -24 45 -44
21z m37 -24 c2 -15 -2 -22 -12 -22 -11 0 -16 9 -16 26 0 31 23 28 28 -4z"/>
<path d="M1712 591 c-21 -13 -11 -55 15 -59 26 -4 41 31 23 53 -14 17 -20 18
-38 6z m32 -18 c9 -22 -10 -41 -25 -26 -13 13 -5 43 10 43 5 0 12 -8 15 -17z"/>
<path d="M1784 592 c-16 -11 -24 -62 -9 -62 8 0 10 9 7 25 -3 18 0 25 12 25
10 0 16 -9 16 -25 0 -14 5 -25 10 -25 6 0 8 11 4 28 -11 44 -17 50 -40 34z"/>
<path d="M1843 585 c-3 -9 -3 -19 0 -22 4 -3 1 -15 -5 -26 -14 -27 15 -52 43
-36 29 15 24 39 -8 39 -26 1 -27 1 -8 12 28 16 36 31 22 40 -19 12 -37 9 -44
-7z m27 -10 c0 -8 -4 -15 -10 -15 -5 0 -10 7 -10 15 0 8 5 15 10 15 6 0 10 -7
10 -15z m15 -55 c-3 -5 -13 -10 -21 -10 -8 0 -14 5 -14 10 0 6 9 10 21 10 11
0 17 -4 14 -10z"/>
<path d="M2020 585 c-15 -18 -7 -43 16 -52 24 -9 46 24 33 48 -12 23 -32 24
-49 4z m38 -23 c2 -15 -2 -22 -12 -22 -11 0 -16 9 -16 26 0 31 23 28 28 -4z"/>
<path d="M2100 592 c-19 -9 -24 -62 -6 -62 9 0 12 9 8 25 -3 19 0 25 13 25 13
0 16 -6 12 -21 -3 -12 0 -22 9 -26 8 -3 14 -11 14 -18 0 -18 21 -24 43 -13 24
12 22 38 -4 38 -19 0 -18 1 6 24 l25 24 -22 5 c-31 9 -49 -10 -42 -42 5 -18 3
-23 -4 -16 -6 6 -12 21 -14 34 -3 27 -15 33 -38 23z m87 -28 c-9 -9 -28 6 -21
18 4 6 10 6 17 -1 6 -6 8 -13 4 -17z m13 -44 c0 -5 -9 -10 -20 -10 -11 0 -20
5 -20 10 0 6 9 10 20 10 11 0 20 -4 20 -10z"/>
<path d="M2226 534 c-10 -25 1 -29 14 -5 6 12 7 21 1 21 -5 0 -12 -7 -15 -16z"/>
<path d="M286 213 c-6 -14 -5 -15 5 -6 7 7 10 15 7 18 -3 3 -9 -2 -12 -12z"/>
<path d="M243 173 c0 -9 4 -10 14 -2 7 6 13 12 13 14 0 1 -6 2 -13 2 -8 0 -14
-6 -14 -14z"/>
</g>
</svg>
