<?xml version="1.0" standalone="no"?>
<!DOCTYPE svg PUBLIC "-//W3C//DTD SVG 20010904//EN"
 "http://www.w3.org/TR/2001/REC-SVG-20010904/DTD/svg10.dtd">
<svg version="1.0" xmlns="http://www.w3.org/2000/svg"
 width="300.000000pt" height="300.000000pt" viewBox="0 0 300.000000 300.000000"
 preserveAspectRatio="xMidYMid meet">
<metadata>
Created by potrace 1.10, written by Peter Selinger 2001-2011
</metadata>
<g transform="translate(0.000000,300.000000) scale(0.100000,-0.100000)"
fill="#000000" stroke="none">
<path d="M1206 2970 c-158 -33 -351 -103 -343 -124 2 -6 17 -51 33 -100 16
-49 31 -81 33 -70 2 10 -7 51 -19 90 -21 67 -22 74 -7 88 15 15 18 14 34 -11
25 -37 26 -175 2 -199 -16 -15 -20 -13 -59 22 -45 40 -79 102 -80 142 0 21 -5
19 -82 -29 -362 -224 -613 -589 -692 -1009 -25 -128 -22 -433 5 -563 55 -274
178 -515 372 -730 l71 -79 27 134 c50 249 123 485 210 680 43 96 50 120 46
158 -4 37 -12 51 -46 82 -61 54 -166 72 -244 42 -9 -3 -17 -1 -17 4 0 17 107
34 180 30 47 -2 82 -11 118 -30 l52 -27 0 47 c0 156 -100 322 -232 386 -65 31
-186 58 -209 46 -13 -7 -15 -5 -12 13 10 49 -72 97 -164 97 -24 0 -43 2 -43 5
0 15 86 177 127 239 91 138 238 297 331 358 25 16 27 16 55 -8 15 -13 33 -24
38 -24 19 0 8 -18 -16 -24 -26 -7 -41 -41 -31 -73 6 -19 78 -103 88 -103 3 0
22 -7 43 -16 37 -15 37 -16 16 -30 -12 -9 -19 -20 -16 -25 4 -5 -1 -19 -9 -31
l-16 -22 0 27 c0 33 -30 95 -58 120 -31 29 -60 13 -88 -46 -28 -61 -31 -129
-8 -187 9 -23 14 -43 11 -46 -3 -3 -8 4 -12 17 -18 55 -115 130 -195 149 -43
10 -54 10 -75 -4 -55 -36 -19 -182 66 -267 47 -47 79 -74 92 -76 34 -7 22 -12
-33 -13 -78 -2 -60 -12 49 -29 40 -6 96 -22 124 -36 28 -13 52 -23 53 -22 1 1
-3 30 -8 64 -7 41 -7 77 0 110 l10 48 1 -40 c3 -98 46 -232 85 -264 26 -22 73
-111 99 -188 l24 -73 23 58 c74 190 115 351 126 494 6 73 4 89 -14 125 -39 75
-128 133 -206 133 -17 0 -25 4 -21 11 8 13 95 3 141 -16 17 -7 47 -27 67 -45
l37 -32 -6 34 c-21 123 -77 240 -129 268 -14 7 -25 17 -25 22 0 13 9 10 56
-23 54 -37 106 -113 132 -194 22 -64 44 -219 35 -241 -9 -24 6 -15 42 25 32
35 151 108 161 99 2 -2 -22 -23 -54 -45 -68 -48 -127 -129 -141 -193 -6 -25
-17 -92 -25 -150 -8 -58 -18 -114 -22 -125 -5 -14 4 -9 32 16 69 64 146 115
261 173 62 32 124 71 137 87 31 36 50 102 43 146 -3 19 -2 31 2 28 15 -8 21
-97 10 -138 -6 -21 -21 -50 -35 -64 -13 -13 -24 -25 -24 -26 0 -1 33 -2 73 -3
56 0 86 -7 134 -29 35 -15 68 -34 75 -43 11 -13 10 -14 -2 -9 -8 3 -46 16 -84
28 -147 47 -304 2 -454 -128 l-44 -38 109 0 c97 0 114 -3 168 -28 70 -32 135
-76 135 -89 0 -5 -13 0 -30 12 -57 41 -139 62 -240 64 -89 1 -100 -1 -163 -32
-60 -30 -71 -40 -121 -115 -192 -291 -340 -762 -391 -1244 l-7 -61 85 -50
c153 -90 321 -155 486 -186 115 -22 447 -22 562 0 588 111 1052 561 1183 1146
19 84 26 141 25 209 -2 106 1 114 -35 -120 -23 -151 -66 -287 -137 -426 -44
-87 -46 -91 -109 -180 -101 -145 -239 -279 -398 -387 -104 -70 -309 -165 -324
-151 -3 4 -6 1 -6 -5 0 -7 -8 -12 -18 -12 -11 0 -32 -7 -48 -14 -28 -14 -62
-22 -224 -49 -125 -20 -316 -13 -460 17 -69 15 -132 28 -141 30 -73 18 -275
106 -318 138 -13 10 -30 18 -37 18 -8 0 -14 4 -14 9 0 5 -9 13 -20 16 -19 6
-20 12 -15 83 4 42 11 102 16 132 5 30 12 73 15 95 10 70 63 295 96 404 38
129 74 225 135 354 45 94 62 108 63 49 0 -39 51 -131 94 -169 84 -74 203 -105
241 -63 14 16 17 30 12 74 -6 61 -25 103 -73 162 l-33 41 43 1 c32 2 43 -2 43
-13 0 -20 34 -95 44 -95 4 0 14 -6 21 -12 54 -52 192 -57 205 -8 5 18 6 18 31
2 14 -9 31 -17 37 -18 7 -1 22 -5 34 -9 17 -5 24 -1 34 25 8 17 13 51 12 76
-2 44 -2 44 19 29 76 -55 154 -74 181 -45 25 28 3 95 -46 142 -44 42 -48 52
-19 43 11 -4 20 -2 20 4 0 6 3 10 8 9 28 -9 122 59 122 88 0 27 -81 79 -138
89 -41 7 -52 17 -32 30 18 11 10 33 -26 71 -32 32 -34 36 -13 30 105 -33 192
-28 237 14 32 30 27 53 -17 93 -46 42 -126 70 -185 65 l-44 -3 39 33 c73 63
122 187 89 227 -22 26 -128 18 -195 -15 -50 -24 -54 -25 -37 -6 35 39 62 110
62 164 0 44 -4 54 -25 68 -23 15 -28 15 -62 -1 -21 -10 -53 -33 -71 -52 -35
-35 -52 -36 -52 -2 0 24 -23 71 -44 88 -22 18 -64 -10 -104 -68 -38 -56 -50
-110 -41 -176 5 -27 7 -50 6 -51 -1 -1 -22 -5 -47 -9 -41 -7 -43 -6 -31 9 12
15 12 19 0 30 -19 18 -96 -8 -140 -47 -17 -16 -32 -27 -35 -25 -2 2 -6 24 -8
49 -11 91 -46 195 -90 262 -11 16 -14 27 -7 27 6 0 11 -4 11 -10 0 -20 47 -9
72 18 73 77 78 225 10 305 -8 9 -21 17 -28 17 -20 0 -63 -44 -83 -86 l-18 -37
-13 39 c-7 21 -17 45 -23 52 -17 22 11 38 118 71 295 90 615 84 905 -16 115
-40 364 -168 390 -202 3 -4 34 -30 70 -58 72 -57 143 -129 211 -213 49 -61
109 -145 109 -154 0 -3 11 -21 24 -40 68 -100 152 -346 175 -511 27 -196 29
-199 30 -95 1 103 -21 219 -66 355 -167 509 -606 893 -1135 996 -138 27 -453
26 -582 -1z m-78 -170 c38 -75 25 -173 -30 -236 -29 -33 -32 -34 -50 -18 -10
10 -26 42 -34 72 -14 47 -14 64 -4 109 12 55 62 127 84 120 6 -1 21 -23 34
-47z m-368 -60 c26 -18 60 -75 60 -99 0 -16 -86 -14 -118 3 -15 8 -38 26 -51
40 l-24 26 22 0 c13 0 53 -17 89 -37 78 -43 67 -20 -14 28 -49 30 -53 35 -37
46 23 18 40 16 73 -7z m230 -106 c0 -14 7 -39 16 -55 l15 -31 -44 34 c-41 31
-43 34 -26 46 11 7 19 20 19 28 0 8 5 12 10 9 6 -3 10 -17 10 -31z m-112 3 c9
-7 9 -13 1 -23 -6 -8 -8 -21 -5 -30 5 -13 3 -14 -6 -7 -7 6 -26 14 -43 18 -29
7 -30 7 -7 18 12 5 22 19 22 29 0 19 8 18 38 -5z m-61 -58 c46 -17 92 -58 114
-101 11 -22 18 -43 15 -46 -13 -12 -116 -14 -151 -2 -59 20 -135 97 -135 139
0 26 98 33 157 10z m733 -174 c0 -62 -27 -122 -69 -158 -42 -35 -56 -34 -72 5
-34 82 1 209 72 256 l34 23 17 -38 c10 -21 17 -60 18 -88z m210 25 c0 -55 -27
-115 -68 -153 -31 -29 -100 -59 -116 -50 -4 3 -6 32 -4 64 6 83 46 146 117
182 63 31 71 27 71 -43z m-1077 2 c47 -52 60 -148 28 -211 -32 -61 -45 -67
-74 -31 -46 54 -50 170 -8 229 26 36 32 37 54 13z m301 -24 c11 -44 8 -47 -34
-31 l-40 16 27 18 c37 23 40 23 47 -3z m-111 -94 c68 -34 117 -104 117 -165 0
-31 -1 -32 -40 -26 -82 11 -156 84 -167 166 -6 41 -5 41 26 41 18 0 46 -7 64
-16z m-433 -15 c109 -49 197 -193 174 -285 -6 -25 -9 -26 -50 -20 -63 8 -115
38 -167 96 -50 55 -77 121 -77 187 l0 43 38 0 c20 0 57 -10 82 -21z m1497 -48
c-7 -55 -33 -104 -80 -150 -61 -61 -119 -86 -197 -86 l-65 0 3 35 c5 55 39
116 93 164 59 53 113 74 193 75 l59 1 -6 -39z m-1148 -55 c1 -5 -2 -6 -5 -3
-14 14 -43 -15 -60 -59 -13 -36 -19 -42 -26 -30 -13 23 -37 20 -47 -6 -9 -24
-9 -25 -30 33 -12 32 -4 43 16 24 20 -20 27 -19 61 10 18 15 35 44 43 71 l14
45 17 -38 c9 -21 17 -42 17 -47z m761 56 c0 -40 64 -62 94 -32 6 6 14 10 19
10 5 0 -5 -17 -22 -37 -48 -57 -49 -59 -53 -79 -2 -10 -7 5 -12 35 -12 92 -57
107 -62 20 -1 -22 -5 -53 -9 -67 -7 -29 -90 -112 -112 -112 -15 0 -17 21 -4
35 14 17 41 107 41 141 0 25 5 33 23 38 12 3 36 19 52 36 33 35 45 38 45 12z
m-150 -89 c0 -101 -64 -202 -155 -244 -71 -33 -95 -23 -95 40 0 119 121 261
223 261 26 0 27 -1 27 -57z m-592 3 c43 -22 89 -76 116 -136 33 -70 35 -164 6
-228 -18 -39 -21 -42 -41 -31 -46 24 -108 92 -130 142 -30 67 -33 185 -6 235
20 37 19 37 55 18z m164 -67 l37 9 -4 -52 c-7 -78 -16 -125 -26 -132 -5 -3 -9
6 -9 20 0 34 -33 117 -60 150 -14 18 -14 18 6 8 13 -7 34 -8 56 -3z m-679 -92
c44 -24 46 -38 11 -66 -57 -45 -159 -50 -206 -10 -23 18 -22 18 67 20 140 2
170 16 38 18 -89 1 -113 4 -113 15 0 20 27 38 68 46 48 9 88 2 135 -23z m1690
-13 c41 -21 87 -64 87 -81 0 -8 -21 -23 -47 -35 -52 -23 -131 -20 -183 7 -27
14 -80 69 -80 84 0 4 15 15 33 24 43 21 148 22 190 1z m-243 -14 c-9 -17 -14
-18 -33 -9 -21 12 -21 12 -2 20 37 14 47 11 35 -11z m-1104 -18 c-6 -18 -10
-19 -36 -9 l-29 11 32 11 c38 13 41 12 33 -13z m-222 -48 c50 -19 -36 -122
-118 -143 -47 -12 -111 -6 -122 10 -7 12 19 60 48 86 46 43 141 67 192 47z
m94 -9 c12 -3 22 -11 22 -16 0 -5 7 -9 15 -9 21 0 85 -42 111 -72 39 -45 39
-53 -1 -30 -65 39 -196 61 -232 39 -6 -4 -3 11 8 32 10 22 19 47 19 56 0 11 6
15 18 11 9 -2 27 -7 40 -11z m659 -40 c-1 0 -15 -11 -31 -25 l-29 -25 7 44 c9
61 16 67 37 35 10 -16 17 -28 16 -29z m-1037 26 c14 -2 30 -4 37 -5 23 -4 26
-16 10 -33 -25 -28 -31 -67 -13 -82 17 -14 22 -33 7 -28 -5 1 -23 -8 -40 -21
l-31 -23 20 -39 c24 -46 61 -86 90 -95 27 -9 22 -39 -7 -43 -30 -4 -113 -80
-129 -117 -22 -53 -10 -71 54 -85 59 -12 86 -10 136 9 38 15 43 8 23 -34 -23
-47 -21 -88 3 -110 16 -15 31 -17 85 -12 35 3 78 13 95 22 16 8 30 13 30 10 0
-7 11 2 73 56 52 46 83 96 95 156 l8 37 22 -24 c12 -13 26 -38 32 -55 9 -28 6
-42 -24 -106 -97 -211 -174 -459 -242 -776 -2 -13 -8 -23 -13 -23 -13 0 -124
133 -175 210 -61 91 -128 221 -121 237 3 9 0 11 -7 7 -7 -5 -9 0 -6 14 4 12 2
20 -2 17 -17 -11 -65 147 -96 320 -23 127 -20 335 6 482 21 116 37 163 49 147
3 -5 17 -11 31 -13z m1394 -2 c-23 -11 -52 -31 -65 -45 -20 -21 -22 -29 -12
-53 l10 -28 -36 9 c-20 5 -57 12 -83 15 -27 3 -48 9 -48 13 0 15 134 93 144
83 3 -3 6 -1 6 5 0 10 34 18 95 20 29 1 29 0 -11 -19z m252 -27 c21 -11 50
-32 63 -46 23 -25 23 -27 7 -45 -10 -11 -41 -29 -69 -41 -92 -40 -218 -19
-289 48 -32 29 -38 58 -10 47 15 -7 82 -13 295 -29 31 -2 57 0 57 5 0 5 -8 10
-17 10 -82 6 -105 8 -158 13 -33 3 -86 5 -118 5 -63 1 -67 10 -16 37 70 35
181 34 255 -4z m-1206 -68 c94 -28 173 -97 194 -170 16 -52 -139 -66 -236 -22
-62 29 -128 91 -148 138 -15 36 -14 38 37 55 51 19 88 18 153 -1z m314 -45 c5
-5 18 -3 28 2 11 6 21 9 23 7 6 -7 -39 -108 -48 -105 -5 1 -15 19 -22 40 -7
20 -20 48 -29 62 l-16 25 27 -12 c16 -7 32 -15 37 -19z m-538 12 c-4 -5 -2
-11 3 -13 4 -1 11 -13 15 -25 l7 -22 -49 22 c-49 22 -49 22 -20 28 16 4 32 9
35 13 9 9 15 7 9 -3z m-11 -71 c40 -25 90 -93 81 -109 -11 -17 -87 -33 -125
-26 -53 10 -107 41 -135 78 -49 64 -25 90 81 83 41 -2 74 -11 98 -26z m1620 1
c54 -24 72 -46 54 -67 -58 -70 -210 -72 -288 -4 -28 25 -20 38 42 69 53 26
137 27 192 2z m-596 -5 c-8 -8 -78 -10 -85 -3 -4 4 14 7 41 7 27 0 46 -2 44
-4z m337 -12 c-3 -8 -8 -20 -12 -28 -3 -7 11 -27 32 -46 34 -29 36 -34 21 -45
-9 -7 -17 -17 -17 -24 0 -17 -15 -13 -36 10 -22 25 -100 63 -113 54 -5 -3 -23
8 -39 25 -34 34 -30 37 22 15 53 -22 75 -2 40 36 -15 17 -13 18 46 18 49 -1
60 -3 56 -15z m-451 -10 c-10 -8 -24 -14 -30 -14 -7 0 -23 -9 -36 -21 -13 -12
-31 -26 -39 -33 -21 -15 -50 -62 -50 -80 0 -8 -13 -16 -30 -18 -29 -4 -30 -4
-15 16 8 12 18 28 22 36 25 61 109 123 170 127 26 1 27 0 8 -13z m249 -38 l47
-27 -21 -30 c-50 -69 -135 -109 -233 -109 -68 0 -122 14 -157 40 -23 17 -23
20 -10 45 56 104 260 148 374 81z m-968 -50 c34 -5 24 -22 -18 -34 -24 -6 -49
-16 -57 -21 -20 -13 -6 -41 20 -41 28 0 23 -5 -25 -25 l-38 -16 7 31 c5 23 2
37 -12 52 -18 20 -17 21 5 35 14 10 22 25 22 44 l0 29 39 -26 c22 -14 47 -27
57 -28z m241 -53 c-6 -5 -47 19 -47 28 0 3 10 11 23 16 19 9 22 7 25 -14 2
-14 1 -27 -1 -30z m846 43 c87 -36 149 -168 117 -250 -8 -23 -12 -25 -37 -15
-38 14 -90 66 -114 112 -20 39 -27 106 -15 145 9 26 8 26 49 8z m242 -44 c47
-25 95 -95 95 -138 0 -41 -132 4 -175 60 -34 45 -43 93 -19 98 23 5 72 -5 99
-20z m-1463 -20 c14 -14 1 -48 -34 -88 -59 -67 -152 -97 -233 -74 -25 7 -45
18 -45 25 0 19 54 89 84 109 52 33 99 46 160 42 32 -2 63 -9 68 -14z m1140
-19 c3 -21 8 -46 12 -55 7 -15 4 -15 -33 2 -22 11 -49 20 -61 20 -25 0 -26 17
-1 25 10 3 26 14 36 25 27 30 42 24 47 -17z m-890 -63 c-6 -74 -73 -153 -164
-195 -47 -21 -69 -25 -125 -23 l-68 3 4 30 c8 70 76 157 153 196 49 25 119 37
168 29 33 -5 35 -8 32 -40z m498 39 c103 -31 192 -145 194 -247 l1 -57 -33 -3
c-84 -8 -201 67 -247 158 -26 52 -41 120 -32 145 8 18 63 20 117 4z m373 -57
c33 -19 77 -75 77 -98 0 -7 -18 -15 -43 -19 -70 -11 -149 31 -183 97 -18 34
-18 35 4 42 31 9 113 -3 145 -22z"/>
<path d="M1075 2811 c-10 -33 -21 -242 -13 -247 5 -3 8 1 8 8 0 7 5 66 11 132
10 114 8 150 -6 107z"/>
<path d="M795 2515 c117 -57 134 -63 116 -41 -6 7 -46 28 -89 46 -42 19 -81
37 -86 42 -6 4 -19 8 -30 7 -12 0 29 -25 89 -54z"/>
<path d="M1492 2498 c-16 -21 -73 -271 -58 -257 11 11 80 269 71 269 -1 0 -7
-6 -13 -12z"/>
<path d="M1706 2418 c-18 -29 -49 -79 -69 -111 -21 -31 -37 -60 -37 -64 0 -14
44 35 68 77 14 25 31 52 38 60 14 17 45 90 38 90 -2 0 -19 -24 -38 -52z"/>
<path d="M647 2413 c-10 -9 -7 -172 3 -203 5 -16 8 18 9 93 1 64 0 117 -2 117
-2 0 -7 -3 -10 -7z"/>
<path d="M885 2230 c49 -50 91 -90 93 -90 23 0 -130 166 -161 174 -12 3 17
-33 68 -84z"/>
<path d="M342 2277 c7 -14 31 -45 53 -69 22 -24 56 -63 76 -88 54 -66 98 -110
111 -110 13 0 18 -7 -126 157 -112 129 -137 152 -114 110z"/>
<path d="M1900 2273 c-18 -7 -57 -36 -175 -129 -88 -69 -125 -104 -110 -104 8
0 305 229 305 236 0 4 1 5 -20 -3z"/>
<path d="M1303 2133 c-26 -38 -50 -70 -53 -73 -18 -17 -81 -123 -78 -132 2 -6
45 47 94 118 108 155 108 154 95 154 -5 0 -31 -30 -58 -67z"/>
<path d="M780 2155 c0 -5 28 -93 63 -195 38 -114 63 -175 65 -160 3 26 -101
337 -118 354 -6 6 -10 6 -10 1z"/>
<path d="M1795 1948 c24 -15 19 -13 130 -33 103 -17 133 -19 120 -6 -6 4 -41
13 -80 20 -38 6 -83 13 -100 16 -97 17 -92 17 -70 3z"/>
<path d="M295 1841 c-112 -55 -106 -70 7 -17 73 34 122 65 103 66 -5 0 -55
-22 -110 -49z"/>
<path d="M391 1766 c8 -8 340 -146 351 -146 24 0 -9 21 -80 50 -42 17 -91 38
-107 45 -88 40 -129 55 -147 55 -12 0 -19 -2 -17 -4z"/>
<path d="M160 1669 c40 -28 218 -94 227 -85 7 6 -21 20 -126 60 -93 36 -129
45 -101 25z"/>
<path d="M1736 1631 c13 -14 233 -16 247 -2 8 8 -24 11 -123 11 -85 0 -130 -4
-124 -9z"/>
<path d="M1420 1598 c-25 -4 -65 -10 -90 -13 -25 -4 -58 -11 -74 -16 -16 -5
-41 -9 -55 -9 -14 -1 -37 -8 -51 -16 -25 -15 -24 -15 15 -10 34 4 187 31 235
41 8 2 36 7 62 10 26 4 45 11 43 16 -6 9 -18 8 -85 -3z"/>
<path d="M1635 1455 c68 -127 85 -155 85 -136 0 24 -91 195 -117 221 -19 18
-10 -4 32 -85z"/>
<path d="M1765 1522 c21 -22 150 -122 159 -122 15 0 -15 29 -77 76 -57 44
-104 70 -82 46z"/>
<path d="M310 1454 c-30 -13 -66 -29 -80 -34 -62 -25 -123 -58 -108 -59 9 -1
29 4 45 11 15 6 33 12 40 14 7 1 27 9 44 18 18 9 36 16 41 16 6 0 21 9 35 20
14 11 29 18 33 15 4 -3 10 2 14 10 7 20 1 19 -64 -11z"/>
<path d="M580 1425 c-7 -8 -17 -15 -22 -15 -6 0 -27 -13 -47 -28 -20 -16 -71
-51 -114 -78 -43 -27 -83 -57 -89 -68 -8 -14 -7 -17 4 -10 47 28 308 205 308
209 0 11 -28 4 -40 -10z"/>
<path d="M1040 1443 c0 -13 106 -123 187 -195 28 -25 50 -48 48 -50 -2 -2 8
-9 22 -15 23 -11 -3 17 -173 192 -46 47 -84 78 -84 68z"/>
<path d="M1381 1384 c14 -17 150 -84 171 -84 23 0 -6 19 -96 60 -52 24 -83 34
-75 24z"/>
<path d="M828 2842 c-10 -2 -18 -8 -18 -13 0 -11 11 -11 30 1 18 11 11 18 -12
12z"/>
<path d="M1269 2650 c-98 -52 -166 -208 -136 -311 17 -58 34 -67 89 -46 92 36
148 124 158 249 3 42 3 75 1 72 -3 -2 -10 9 -17 26 -15 36 -41 38 -95 10z m90
-51 c13 -39 12 -51 -2 -107 -25 -96 -80 -161 -159 -191 -25 -9 -28 -8 -39 26
-15 48 -6 140 19 189 32 62 126 140 157 131 6 -2 16 -23 24 -48z"/>
<path d="M1256 2476 c-42 -87 -76 -161 -76 -163 0 -3 6 0 14 6 15 12 36 53
105 205 72 157 36 117 -43 -48z"/>
<path d="M1224 1029 c-3 -6 -11 -8 -17 -6 -7 2 -20 0 -29 -4 -10 -6 -19 -5
-23 1 -10 16 -77 12 -97 -6 -13 -13 -21 -14 -31 -6 -22 18 -95 26 -112 12 -21
-17 -21 -152 0 -170 17 -14 88 -8 110 10 13 10 19 10 33 -3 12 -11 37 -15 91
-14 65 1 75 4 88 24 17 26 33 30 33 9 0 -7 7 -20 16 -27 13 -11 21 -11 43 2
23 13 31 14 45 4 21 -16 86 -17 104 -2 9 7 16 7 24 -1 22 -22 47 -13 57 21 7
24 9 27 10 10 1 -30 34 -47 61 -33 14 7 20 22 22 48 l1 37 4 -35 c3 -19 9 -40
14 -46 10 -12 163 -13 175 -2 4 4 13 3 20 -3 13 -11 142 -7 162 5 6 3 23 1 37
-6 24 -11 29 -10 45 9 17 22 18 22 35 3 35 -39 75 -12 75 49 0 22 6 44 15 51
19 16 19 44 1 59 -19 16 -175 9 -185 -8 -6 -9 -10 -9 -19 1 -14 18 -150 22
-169 6 -10 -8 -17 -8 -25 0 -18 18 -45 14 -61 -9 -15 -20 -15 -20 -28 -1 -12
16 -28 19 -98 21 -47 0 -90 -4 -97 -10 -9 -7 -19 -7 -33 0 -33 18 -71 13 -94
-13 l-21 -24 -19 24 c-22 29 -41 30 -67 4 -10 -10 -22 -15 -25 -10 -10 17 -65
39 -71 29z m-209 -43 c22 -16 26 -76 6 -100 -9 -10 -29 -16 -57 -16 l-44 0 0
65 0 65 38 0 c21 0 47 -6 57 -14z m135 -1 c0 -11 -7 -14 -25 -9 -19 5 -25 2
-25 -10 0 -10 9 -16 25 -16 16 0 25 -6 25 -15 0 -9 -9 -15 -25 -15 -16 0 -25
-6 -25 -15 0 -10 10 -15 30 -15 17 0 30 -4 30 -10 0 -5 -20 -10 -45 -10 l-45
0 0 65 0 65 40 0 c29 0 40 -4 40 -15z m120 0 c15 -19 5 -65 -15 -66 -8 -1 -21
-2 -27 -3 -7 -1 -13 -12 -13 -25 0 -13 -6 -26 -12 -28 -10 -4 -13 14 -13 66
l0 71 34 0 c18 0 39 -7 46 -15z m122 -50 c24 -60 25 -65 8 -65 -10 0 -20 6
-22 12 -7 19 -40 16 -61 -5 -10 -10 -21 -17 -23 -14 -4 4 30 109 41 127 15 24
33 6 57 -55z m136 37 c2 -13 -1 -28 -6 -35 -7 -8 -6 -18 4 -31 8 -11 14 -26
14 -33 0 -20 -31 -3 -41 23 -11 31 -29 31 -29 -1 0 -16 -6 -25 -15 -25 -12 0
-15 14 -15 66 l0 65 43 -3 c35 -3 43 -7 45 -26z m132 18 c0 -5 -10 -10 -21
-10 -20 0 -21 -4 -17 -55 4 -49 3 -55 -15 -55 -18 0 -19 6 -15 55 4 48 2 55
-14 55 -10 0 -18 5 -18 10 0 6 23 10 50 10 28 0 50 -4 50 -10z m88 -40 l15
-44 14 47 c10 35 18 47 33 47 17 0 20 -7 20 -49 0 -27 3 -56 6 -65 4 -11 1
-16 -10 -16 -12 0 -16 10 -16 41 0 48 -16 44 -26 -6 -9 -48 -39 -48 -48 0 -10
50 -26 54 -26 6 0 -26 -5 -41 -12 -41 -10 0 -12 18 -10 66 3 59 6 65 25 62 14
-2 25 -16 35 -48z m209 38 c-2 -7 -16 -12 -31 -10 -18 2 -26 -2 -26 -13 0 -9
9 -15 25 -15 16 0 25 -6 25 -15 0 -9 -9 -15 -25 -15 -16 0 -25 -6 -25 -15 0
-10 10 -15 30 -15 17 0 30 -4 30 -10 0 -5 -20 -10 -45 -10 l-45 0 0 65 0 65
46 0 c32 0 44 -4 41 -12z m87 -30 l25 -43 1 43 c0 31 4 42 15 42 13 0 15 -12
13 -65 -3 -53 -6 -65 -20 -65 -9 0 -19 8 -22 18 -4 9 -15 28 -26 42 l-20 25 6
-42 c5 -36 4 -43 -10 -43 -13 0 -16 12 -16 65 0 79 16 85 54 23z m186 32 c0
-5 -9 -10 -20 -10 -18 0 -20 -7 -20 -55 0 -42 -3 -55 -15 -55 -12 0 -15 13
-15 55 0 48 -2 55 -20 55 -11 0 -20 5 -20 10 0 6 25 10 55 10 30 0 55 -4 55
-10z"/>
<path d="M950 935 c0 -32 4 -45 14 -45 18 0 46 27 46 45 0 18 -28 45 -46 45
-10 0 -14 -13 -14 -45z"/>
<path d="M1210 961 c0 -15 6 -21 21 -21 25 0 22 33 -4 38 -12 2 -17 -3 -17
-17z"/>
<path d="M1340 935 c0 -17 4 -23 14 -19 8 3 12 13 9 25 -7 27 -23 24 -23 -6z"/>
<path d="M1470 960 c0 -11 4 -20 9 -20 13 0 32 26 24 33 -13 14 -33 6 -33 -13z"/>
<path d="M2324 1012 c-25 -20 -41 -50 -39 -72 1 -8 3 -22 3 -31 1 -9 13 -28
27 -43 26 -28 70 -35 107 -15 15 8 27 8 45 -2 22 -12 27 -10 67 35 36 41 43
55 41 86 -1 20 -5 42 -9 49 -11 17 -91 14 -106 -4 -12 -14 -15 -14 -30 0 -22
20 -80 19 -106 -3z m90 -23 c34 -27 35 -71 1 -104 -13 -14 -31 -25 -40 -25
-27 0 -65 46 -65 79 0 30 38 71 65 71 7 0 24 -9 39 -21z m136 1 c0 -5 -11 -10
-25 -10 -16 0 -25 -6 -25 -15 0 -9 9 -15 25 -15 16 0 25 -6 25 -15 0 -11 -7
-14 -25 -9 -23 6 -25 3 -25 -25 0 -21 -5 -31 -15 -31 -12 0 -15 14 -15 65 l0
65 40 0 c22 0 40 -4 40 -10z"/>
<path d="M2350 966 c-15 -19 -9 -56 12 -69 34 -22 66 41 36 71 -16 16 -33 15
-48 -2z"/>
<path d="M1135 802 c-22 -2 -46 -8 -53 -14 -9 -8 -16 -8 -24 0 -7 7 -42 12
-80 12 -84 0 -88 -6 -88 -130 0 -131 1 -131 118 -131 53 0 126 0 161 -1 58 0
67 2 88 26 22 25 23 26 40 7 49 -51 116 -55 166 -12 32 29 34 29 47 11 22 -31
59 -40 149 -37 65 3 85 7 93 20 13 23 55 21 70 -3 14 -22 57 -27 75 -9 8 8 13
8 17 0 12 -19 54 -12 70 11 11 15 16 45 16 90 0 54 3 68 15 68 12 0 15 -15 15
-74 0 -77 6 -88 48 -99 17 -4 27 1 39 19 16 25 16 25 37 5 46 -43 89 -46 153
-10 27 15 33 16 43 3 13 -15 48 -19 66 -6 6 4 14 16 18 27 7 19 8 19 28 -7 21
-30 64 -38 86 -16 8 8 12 49 12 118 0 91 -3 109 -18 123 -24 22 -31 21 -58 -4
-14 -13 -20 -28 -17 -38 4 -9 -7 -1 -24 17 -34 35 -63 41 -88 16 -15 -16 -19
-15 -55 5 -49 27 -81 27 -128 -2 -35 -23 -38 -23 -55 -7 -14 14 -39 18 -128
19 -60 1 -118 -3 -128 -8 -12 -7 -29 -6 -50 2 -50 19 -64 6 -103 -97 -24 -62
-31 -67 -96 -66 -33 0 -42 8 -42 35 0 31 27 45 72 40 29 -4 37 -1 48 19 16 31
8 51 -27 70 -34 17 -116 6 -145 -20 -16 -16 -18 -15 -24 0 -4 10 -18 22 -32
27 -42 16 -62 -13 -64 -95 -3 -104 -23 -93 -27 14 -1 25 -4 53 -7 63 -8 24
-60 23 -76 -3 -11 -17 -14 -18 -29 -4 -9 8 -29 17 -45 20 -15 3 -30 6 -33 7
-3 1 -24 1 -46 -1z m-85 -42 c0 -17 -7 -20 -45 -20 -41 0 -45 -2 -45 -25 0
-22 4 -25 40 -25 34 0 40 -3 40 -21 0 -19 -5 -21 -40 -17 -38 3 -40 2 -40 -24
0 -26 2 -28 45 -28 38 0 45 -3 45 -20 0 -18 -7 -20 -65 -20 l-65 0 0 110 0
110 65 0 c58 0 65 -2 65 -20z m200 -15 c37 -37 36 -114 -2 -152 -23 -23 -38
-28 -93 -31 l-65 -4 0 112 0 113 67 -6 c54 -5 72 -12 93 -32z m102 -52 l3 -88
30 0 30 0 3 88 c3 85 3 87 27 87 25 0 25 -1 25 -88 0 -109 -15 -132 -85 -132
-67 0 -85 29 -85 136 0 83 0 84 25 84 24 0 24 -2 27 -87z m309 77 c16 -9 17
-14 8 -31 -8 -16 -14 -18 -22 -10 -20 20 -64 12 -86 -15 -25 -32 -27 -62 -5
-93 15 -21 22 -23 65 -18 36 4 49 2 53 -8 7 -20 -24 -35 -74 -35 -33 0 -48 6
-71 29 -24 25 -29 38 -29 78 0 50 17 81 55 101 26 14 81 15 106 2z m439 -100
c0 -107 -1 -110 -22 -110 -23 0 -23 2 -20 110 3 101 5 110 23 110 18 0 19 -8
19 -110z m189 96 c49 -26 66 -98 36 -156 -19 -37 -43 -50 -92 -50 -49 0 -78
21 -93 66 -34 102 57 187 149 140z m160 -56 c23 -38 44 -70 46 -70 2 0 1 32
-2 70 l-6 70 27 0 26 0 0 -110 c0 -107 -1 -110 -22 -110 -18 0 -33 17 -65 72
l-43 73 0 -73 c0 -65 -2 -72 -20 -72 -19 0 -20 7 -20 110 0 101 2 110 19 110
13 0 32 -23 60 -70z m-628 33 c6 -16 24 -63 39 -105 l29 -78 -25 0 c-16 0 -27
7 -33 21 -11 33 -80 33 -88 2 -3 -16 -13 -23 -29 -23 -13 0 -24 2 -24 4 0 3
16 50 36 105 32 90 39 101 60 101 17 0 28 -8 35 -27z m209 7 c0 -16 -5 -19
-30 -13 l-30 6 0 -92 0 -91 -26 0 -25 0 2 88 2 87 -28 0 c-19 0 -29 6 -31 18
-2 15 7 17 82 17 77 0 84 -2 84 -20z m-963 -35 c0 -8 -4 -12 -9 -9 -5 3 -6 10
-3 15 9 13 12 11 12 -6z m833 -35 c0 -25 -16 -34 -24 -14 -11 28 -7 44 9 38 8
-4 15 -14 15 -24z m-834 -57 c-10 -10 -19 5 -10 18 6 11 8 11 12 0 2 -7 1 -15
-2 -18z"/>
<path d="M1140 666 l0 -74 36 8 c44 10 54 23 54 72 0 41 -27 68 -67 68 -22 0
-23 -4 -23 -74z m63 15 c5 -20 -9 -51 -23 -51 -6 0 -10 16 -10 35 0 38 24 50
33 16z"/>
<path d="M2196 718 c-33 -46 -7 -128 39 -128 8 0 24 9 35 20 40 40 15 130 -35
130 -13 0 -31 -10 -39 -22z m64 -29 c15 -26 1 -59 -25 -59 -25 0 -34 19 -27
57 5 26 39 27 52 2z"/>
<path d="M1778 700 c-3 -14 -9 -33 -13 -42 -6 -15 -2 -18 19 -18 29 0 31 11
12 55 l-13 30 -5 -25z"/>
<path d="M490 386 c0 -2 8 -10 18 -17 15 -13 16 -12 3 4 -13 16 -21 21 -21 13z"/>
<path d="M530 350 c0 -5 5 -10 11 -10 5 0 7 5 4 10 -3 6 -8 10 -11 10 -2 0 -4
-4 -4 -10z"/>
</g>
</svg>
