<?xml version="1.0" standalone="no"?>
<!DOCTYPE svg PUBLIC "-//W3C//DTD SVG 20010904//EN"
 "http://www.w3.org/TR/2001/REC-SVG-20010904/DTD/svg10.dtd">
<svg version="1.0" xmlns="http://www.w3.org/2000/svg"
 width="300.000000pt" height="300.000000pt" viewBox="0 0 300.000000 300.000000"
 preserveAspectRatio="xMidYMid meet">
<metadata>
Created by potrace 1.10, written by Peter Selinger 2001-2011
</metadata>
<g transform="translate(0.000000,300.000000) scale(0.100000,-0.100000)"
fill="#000000" stroke="none">
<path d="M1311 2534 c-196 -53 -352 -226 -383 -426 -12 -73 -14 -78 -48 -97
-19 -11 -51 -36 -70 -56 l-34 -35 -23 97 -23 98 21 38 c17 30 19 41 9 50 -9 9
-15 8 -24 -7 -19 -32 -45 -56 -61 -56 -29 0 -65 47 -65 85 0 45 61 118 81 98
19 -19 39 -15 39 7 0 12 -10 25 -24 32 -53 24 -136 -59 -136 -136 0 -56 41
-115 82 -116 12 0 20 -15 28 -57 7 -32 20 -92 29 -134 15 -65 16 -80 5 -100
-7 -13 -13 -21 -14 -16 0 12 -50 -24 -61 -45 -7 -14 5 -110 46 -361 31 -188
61 -354 66 -369 9 -22 26 -31 102 -56 195 -65 475 -99 706 -88 274 14 594 87
615 141 8 23 116 675 116 705 0 13 -9 33 -19 44 -20 21 -20 23 1 190 l21 169
69 86 c59 73 66 87 51 93 -16 6 -15 7 3 7 15 1 32 17 52 49 43 66 77 140 69
148 -7 7 -87 -58 -184 -149 -75 -72 -96 -72 -91 1 l3 47 -92 3 c-97 3 -193
-14 -269 -47 l-42 -19 -55 53 c-126 123 -327 175 -496 129z m301 -41 c78 -29
218 -127 218 -154 0 -20 -34 -15 -82 11 -104 58 -172 75 -293 74 -123 0 -177
-15 -207 -55 -16 -21 -20 -50 -25 -167 -6 -139 -7 -142 -27 -136 -33 11 -157
8 -200 -4 -22 -6 -42 -9 -44 -7 -11 11 21 127 55 195 61 126 185 226 319 259
64 16 221 7 286 -16z m902 -15 c-69 -115 -95 -148 -119 -148 -28 0 -34 -15 -9
-24 12 -5 7 -17 -29 -63 -61 -80 -76 -91 -135 -105 -60 -15 -65 -24 -21 -36
l31 -8 -61 -57 c-62 -57 -215 -177 -225 -177 -4 0 19 35 51 78 138 188 264
328 421 469 93 82 110 95 96 71z m-929 -90 c28 -6 83 -26 123 -44 l74 -33 -6
-53 c-7 -59 -35 -510 -37 -600 -1 -37 -6 -58 -14 -58 -7 0 -38 9 -70 20 -32
11 -68 20 -80 20 -20 0 -23 6 -27 63 -3 34 -15 82 -27 106 -11 25 -19 46 -17
48 2 2 32 -7 67 -21 34 -14 64 -24 67 -22 6 6 -32 25 -92 46 -37 12 -69 35
-111 77 -33 33 -83 70 -112 84 -29 13 -50 29 -48 36 2 6 7 84 11 172 l7 160
56 6 c31 4 61 8 66 10 16 5 116 -5 170 -17z m655 2 c0 -5 -5 -42 -11 -83 -10
-67 -15 -78 -59 -129 l-49 -55 -73 -6 c-80 -7 -203 -41 -214 -59 -5 -8 -1 -9
12 -3 44 18 150 45 206 51 l60 7 -47 -61 c-43 -55 -51 -61 -108 -76 -69 -17
-142 -45 -135 -52 3 -2 38 7 78 21 40 14 79 25 87 25 8 0 -4 -26 -29 -65 -34
-51 -51 -67 -78 -75 -45 -13 -77 -34 -38 -26 14 3 33 9 42 12 10 4 2 -18 -24
-62 -46 -78 -50 -97 -17 -66 13 12 24 28 24 35 0 25 54 105 76 111 12 4 61 9
110 13 48 3 87 10 87 16 0 9 -112 2 -155 -10 -26 -7 -23 -4 54 52 36 26 87 68
114 94 l49 45 -6 -34 c-6 -32 -36 -285 -36 -302 0 -13 -87 -37 -157 -42 -60
-4 -145 -27 -225 -61 -15 -6 -17 -1 -12 42 3 26 13 183 23 347 16 259 21 301
36 312 27 20 182 74 239 83 72 12 176 13 176 1z m-979 -192 c-7 -78 -14 -144
-17 -147 -8 -8 6 291 14 304 13 21 13 -22 3 -157z m1004 -78 c-3 -5 -10 -10
-16 -10 -5 0 -9 5 -9 10 0 6 7 10 16 10 8 0 12 -4 9 -10z m-1540 -47 c8 -45
72 -337 82 -372 5 -21 4 -22 -13 -13 -15 8 -25 37 -43 122 -12 61 -33 154 -45
206 -22 88 -22 94 -6 94 13 0 20 -11 25 -37z m1521 -89 c-8 -60 -18 -144 -21
-186 -5 -53 -12 -78 -22 -82 -10 -4 -13 -1 -9 12 3 9 12 87 21 172 15 145 29
210 41 197 3 -2 -2 -54 -10 -113z m-1031 51 c80 -21 161 -72 213 -134 23 -29
42 -56 42 -61 0 -6 -9 -19 -20 -30 -27 -27 -77 -26 -108 3 -20 17 -26 19 -30
8 -11 -31 -51 -61 -82 -61 -32 0 -70 30 -70 54 0 28 -18 26 -48 -4 -17 -16
-39 -30 -50 -30 -30 0 -72 38 -72 66 0 25 -17 30 -55 15 -26 -10 -73 6 -85 29
-22 42 -12 65 44 99 99 59 208 75 321 46z m-395 -134 c0 -11 14 -31 32 -46 26
-22 39 -26 70 -22 32 4 40 2 49 -16 27 -53 101 -75 144 -43 18 13 23 11 53
-15 19 -17 44 -29 60 -29 30 0 92 34 92 50 0 7 9 5 22 -4 34 -24 82 -20 117
10 l31 26 11 -29 c7 -15 14 -66 17 -112 l5 -84 -169 6 c-177 6 -305 23 -439
59 -44 11 -82 22 -83 24 -2 1 -14 50 -26 107 -16 75 -19 109 -11 121 13 22 25
20 25 -3z m-118 -138 c-2 -16 -9 -33 -14 -40 -13 -16 40 -42 164 -82 188 -60
497 -98 698 -86 245 14 500 65 626 124 58 27 64 33 64 60 0 33 14 42 24 16 3
-9 -10 -100 -28 -203 -19 -103 -46 -261 -62 -352 -15 -91 -32 -171 -39 -178
-14 -15 -249 -76 -355 -91 -214 -32 -531 -23 -743 20 -95 19 -257 66 -257 74
0 11 -112 645 -120 680 -9 37 -7 42 18 62 15 13 28 23 28 23 1 0 -1 -12 -4
-27z m55 -60 c-2 -1 -12 3 -21 10 -15 11 -17 20 -10 48 l7 34 14 -44 c7 -25
11 -46 10 -48z m1223 -62 c-43 -13 -105 -23 -98 -16 9 10 66 23 98 23 l25 0
-25 -7z m-340 -42 c11 -6 7 -8 -15 -9 -41 0 -75 10 -75 22 0 11 65 2 90 -13z"/>
<path d="M1375 2251 c-13 -5 11 -10 70 -14 53 -3 122 -16 170 -31 81 -26 114
-27 54 -2 -86 36 -255 63 -294 47z"/>
<path d="M1360 2131 c0 -7 21 -11 53 -12 28 0 93 -11 142 -25 50 -13 101 -27
115 -30 l25 -5 -26 15 c-64 37 -309 82 -309 57z"/>
<path d="M1423 2004 c44 -8 113 -26 154 -39 80 -27 113 -26 48 1 -64 26 -185
54 -234 53 -41 -1 -38 -2 32 -15z"/>
<path d="M2025 2255 c-67 -15 -179 -55 -172 -61 2 -3 38 6 78 20 41 13 110 29
153 35 44 6 82 13 84 16 10 10 -84 3 -143 -10z"/>
<path d="M1036 2011 c-7 -11 20 -48 29 -39 9 8 -4 48 -15 48 -5 0 -11 -4 -14
-9z"/>
<path d="M1124 1996 c-10 -8 -16 -18 -12 -22 11 -10 60 14 53 26 -8 14 -18 13
-41 -4z"/>
<path d="M1212 1979 c1 -12 9 -24 16 -27 9 -3 13 3 10 19 -1 12 -9 24 -16 27
-9 3 -13 -3 -10 -19z"/>
<path d="M848 1363 c-36 -42 -29 -64 31 -104 19 -12 23 -20 17 -35 -8 -18 -9
-18 -19 4 -9 21 -36 29 -50 16 -11 -11 23 -52 49 -58 66 -17 89 50 29 85 -24
15 -35 28 -35 44 0 34 18 40 22 8 2 -19 9 -29 24 -31 18 -3 20 1 16 32 -3 28
-10 37 -35 45 -37 13 -31 14 -49 -6z"/>
<path d="M2006 1363 c-3 -4 -6 -22 -6 -42 0 -58 -13 -64 -34 -15 -14 35 -23
44 -43 44 -25 0 -25 0 -21 -87 3 -84 4 -88 26 -91 19 -3 23 0 19 15 -10 32
-19 113 -14 113 3 0 13 -24 23 -52 18 -56 28 -68 57 -68 14 0 17 10 17 67 0
76 12 76 20 0 4 -44 8 -52 27 -55 20 -3 21 0 16 35 -19 115 -27 136 -55 139
-14 1 -29 0 -32 -3z"/>
<path d="M981 1334 c-14 -18 -21 -41 -21 -70 0 -57 7 -72 42 -90 29 -15 31
-15 59 12 15 15 26 31 23 36 -10 15 -39 8 -52 -12 -7 -12 -17 -18 -22 -15 -15
9 -12 89 5 111 14 18 14 18 15 -8 0 -20 5 -28 18 -28 26 0 30 6 24 36 -2 14
-16 31 -33 39 -36 19 -34 20 -58 -11z"/>
<path d="M1770 1332 c0 -24 -30 -112 -38 -112 -4 0 -8 -14 -9 -30 -3 -36 20
-41 45 -11 25 29 56 31 60 5 3 -23 38 -39 47 -23 3 5 2 17 -4 26 -5 10 -15 46
-21 81 -14 68 -13 66 -52 76 -23 5 -28 3 -28 -12z m36 -88 c-3 -8 -10 -14 -15
-14 -10 0 -9 9 6 48 6 16 6 16 10 -1 3 -10 2 -25 -1 -33z"/>
<path d="M1109 1333 c-5 -44 5 -179 14 -185 25 -16 28 -5 25 89 -3 84 -6 98
-20 101 -10 2 -18 0 -19 -5z"/>
<path d="M1660 1330 c-8 -5 -25 -7 -37 -3 -23 5 -23 4 -23 -86 0 -89 0 -91 26
-97 14 -4 30 -2 37 5 6 6 19 11 29 11 24 0 23 17 -1 30 -13 7 -22 7 -26 0 -9
-15 -25 -12 -25 5 0 8 11 17 25 21 31 8 27 29 -4 28 -34 -1 -27 35 9 49 33 13
36 19 17 35 -8 7 -18 7 -27 2z"/>
<path d="M1317 1312 c-52 -57 -16 -172 53 -172 11 0 50 40 50 51 0 18 -34 18
-47 -1 -23 -33 -33 -23 -33 34 0 38 5 58 17 67 15 13 16 11 10 -12 -5 -20 -3
-29 9 -33 28 -11 34 -7 34 23 0 51 -61 79 -93 43z"/>
<path d="M1468 1323 l-28 -4 0 -90 c0 -88 0 -89 25 -89 22 0 24 3 18 33 l-6
32 24 -20 c13 -11 30 -26 37 -34 11 -13 14 -13 29 1 15 16 14 19 -15 43 l-31
26 25 26 c29 31 30 44 6 66 -18 17 -30 18 -84 10z m62 -31 c0 -5 -11 -19 -25
-32 -25 -23 -25 -23 -25 -2 0 11 8 26 18 31 21 13 32 14 32 3z"/>
<path d="M1172 1244 c2 -14 14 -18 51 -19 38 0 47 3 45 15 -2 10 -18 16 -51
18 -42 3 -48 1 -45 -14z"/>
<path d="M790 2397 c-39 -13 -49 -43 -13 -40 19 2 24 -5 33 -40 6 -23 15 -55
20 -71 14 -41 12 -56 -6 -56 -9 0 -14 -7 -12 -17 4 -20 33 -19 86 2 37 16 42
35 9 35 -21 0 -27 9 -46 77 -21 70 -21 78 -7 89 42 30 2 44 -64 21z"/>
<path d="M408 2284 c-49 -26 -63 -78 -30 -107 12 -11 36 -17 69 -17 58 0 85
-20 66 -48 -8 -13 -24 -17 -67 -15 -42 1 -56 -2 -56 -12 0 -34 79 -46 130 -20
77 40 32 140 -60 134 -49 -3 -60 1 -60 21 0 24 28 40 69 40 24 0 31 4 31 20 0
16 -7 20 -32 20 -18 -1 -45 -7 -60 -16z"/>
<path d="M434 696 c-15 -12 -16 -16 -5 -30 7 -9 20 -16 27 -16 8 0 14 -5 14
-11 0 -7 -10 -9 -26 -5 -19 5 -25 3 -22 -6 3 -7 18 -13 34 -13 22 0 30 5 32
22 3 17 -3 24 -22 29 -14 3 -26 11 -26 16 0 6 11 7 25 4 29 -8 33 -1 6 13 -13
7 -24 6 -37 -3z"/>
<path d="M520 690 c-11 -11 -20 -25 -20 -31 0 -21 21 -49 38 -49 26 0 46 16
37 30 -6 9 -9 9 -15 0 -12 -19 -40 -4 -40 20 0 23 31 41 38 22 4 -14 22 -16
22 -2 0 5 -9 14 -20 20 -15 8 -24 6 -40 -10z"/>
<path d="M862 693 c-11 -21 -4 -83 9 -83 5 0 7 11 3 24 -3 14 -1 27 6 31 9 6
9 10 -1 16 -10 6 -11 9 -1 9 6 0 12 5 12 10 0 16 -19 11 -28 -7z"/>
<path d="M1309 691 c-20 -16 -22 -23 -14 -47 6 -16 18 -30 28 -32 22 -4 49 16
41 30 -4 6 -9 5 -14 -2 -11 -18 -40 -4 -40 19 0 25 18 37 33 22 14 -14 27 -14
27 -1 0 5 -9 14 -19 20 -15 7 -25 5 -42 -9z"/>
<path d="M1615 700 c-3 -5 1 -10 10 -10 9 0 13 5 10 10 -3 6 -8 10 -10 10 -2
0 -7 -4 -10 -10z"/>
<path d="M600 655 c0 -59 15 -59 16 0 0 25 -3 45 -8 45 -4 0 -8 -20 -8 -45z"/>
<path d="M777 688 c-8 -22 5 -78 18 -78 10 0 13 35 6 83 -2 12 -18 8 -24 -5z"/>
<path d="M1226 687 c3 -9 -3 -13 -18 -13 -19 1 -23 -4 -23 -29 0 -26 4 -30 27
-31 24 -1 27 3 30 43 2 29 -1 43 -9 43 -7 0 -10 -6 -7 -13z m-4 -49 c-15 -15
-26 -4 -18 18 5 13 9 15 18 6 9 -9 9 -15 0 -24z"/>
<path d="M1577 694 c-3 -5 -4 -25 -3 -44 1 -26 7 -36 21 -39 17 -3 17 -1 6 12
-7 9 -10 24 -7 34 6 20 -8 51 -17 37z"/>
<path d="M1822 655 c0 -31 4 -45 13 -45 8 0 11 7 8 20 -3 11 0 20 6 20 6 0 16
-9 23 -20 7 -11 19 -20 27 -20 11 0 10 5 -5 21 -15 16 -16 22 -5 29 25 15 4
40 -32 40 -33 0 -34 -1 -35 -45z m56 23 c-7 -19 -38 -22 -38 -4 0 10 9 16 21
16 12 0 19 -5 17 -12z"/>
<path d="M2310 655 c0 -49 15 -62 22 -17 5 35 -1 62 -13 62 -5 0 -9 -20 -9
-45z"/>
<path d="M634 666 c-15 -39 23 -74 50 -46 8 10 6 12 -11 7 -13 -3 -26 -1 -29
4 -3 5 6 9 20 9 28 0 33 9 14 28 -16 16 -37 15 -44 -2z m31 -6 c3 -5 -1 -10
-10 -10 -9 0 -13 5 -10 10 3 6 8 10 10 10 2 0 7 -4 10 -10z"/>
<path d="M700 644 c0 -19 5 -34 10 -34 6 0 10 11 10 24 0 14 5 28 10 31 6 4
10 -7 10 -24 0 -17 5 -31 11 -31 6 0 9 14 7 32 -3 28 -7 33 -30 35 -26 2 -28
-1 -28 -33z"/>
<path d="M820 645 c0 -19 5 -35 10 -35 6 0 10 16 10 35 0 19 -4 35 -10 35 -5
0 -10 -16 -10 -35z"/>
<path d="M900 645 c0 -19 4 -35 8 -35 4 0 8 16 8 35 0 19 -4 35 -8 35 -4 0 -8
-16 -8 -35z"/>
<path d="M934 666 c-11 -28 0 -51 25 -51 14 0 26 6 29 14 3 9 -1 11 -17 6 -15
-5 -21 -2 -21 10 0 9 6 15 14 13 8 -2 16 2 18 7 5 17 -42 18 -48 1z"/>
<path d="M1034 669 c-5 -9 -1 -11 14 -7 12 4 22 3 22 -2 0 -4 -9 -10 -21 -13
-29 -8 -18 -32 15 -33 24 -1 27 2 24 30 -2 23 -9 32 -25 34 -11 2 -24 -2 -29
-9z m36 -39 c0 -5 -4 -10 -10 -10 -5 0 -10 5 -10 10 0 6 5 10 10 10 6 0 10 -4
10 -10z"/>
<path d="M1110 644 c0 -19 4 -34 8 -34 4 0 8 10 7 23 0 31 19 33 23 2 5 -37
24 -30 20 8 -3 27 -7 32 -30 33 -25 1 -28 -2 -28 -32z"/>
<path d="M1380 644 c0 -19 5 -34 10 -34 6 0 10 11 10 24 0 35 28 42 32 8 3
-30 33 -42 52 -21 8 9 7 11 -6 6 -10 -3 -20 -2 -23 3 -4 6 3 10 15 10 15 0 20
5 18 18 -3 13 -14 17 -56 18 l-52 1 0 -33z m90 16 c0 -5 -4 -10 -10 -10 -5 0
-10 5 -10 10 0 6 5 10 10 10 6 0 10 -4 10 -10z"/>
<path d="M1505 670 c-5 -9 -1 -10 14 -5 11 3 21 2 21 -3 0 -5 -9 -12 -21 -15
-29 -8 -19 -31 15 -35 26 -3 27 -1 24 30 -2 25 -8 34 -25 36 -11 2 -24 -2 -28
-8z m35 -34 c0 -3 -4 -8 -10 -11 -5 -3 -10 -1 -10 4 0 6 5 11 10 11 6 0 10 -2
10 -4z"/>
<path d="M1623 645 c0 -22 2 -30 4 -17 2 12 2 30 0 40 -3 9 -5 -1 -4 -23z"/>
<path d="M1654 648 c16 -38 31 -46 39 -21 2 10 8 26 12 36 4 10 3 17 -3 17 -6
0 -14 -10 -18 -22 l-7 -23 -8 23 c-5 12 -13 22 -18 22 -6 0 -4 -14 3 -32z"/>
<path d="M1724 666 c-15 -39 23 -74 50 -46 8 10 6 12 -11 7 -13 -3 -26 -1 -29
4 -3 5 6 9 20 9 28 0 33 9 14 28 -16 16 -37 15 -44 -2z m31 -6 c3 -5 -1 -10
-10 -10 -9 0 -13 5 -10 10 3 6 8 10 10 10 2 0 7 -4 10 -10z"/>
<path d="M1916 662 c-4 -11 -4 -27 0 -36 7 -19 39 -22 50 -4 5 8 2 9 -9 5 -9
-3 -19 -2 -22 3 -4 6 3 10 15 10 15 0 20 5 18 18 -5 25 -45 28 -52 4z m34 -2
c0 -5 -5 -10 -11 -10 -5 0 -7 5 -4 10 3 6 8 10 11 10 2 0 4 -4 4 -10z"/>
<path d="M1985 670 c-8 -14 3 -30 21 -30 8 0 14 -5 14 -11 0 -6 -9 -8 -22 -4
-18 6 -20 4 -12 -5 14 -15 46 -10 52 8 2 7 -5 16 -17 19 -12 3 -21 10 -21 15
0 5 10 6 21 3 15 -5 19 -4 15 4 -9 14 -43 14 -51 1z"/>
<path d="M2055 670 c-4 -6 -4 -22 -1 -36 7 -25 39 -33 52 -12 5 8 2 9 -9 5 -9
-3 -19 -2 -22 3 -4 6 3 10 15 10 15 0 20 5 18 18 -4 20 -43 29 -53 12z m35
-10 c0 -5 -5 -10 -11 -10 -5 0 -7 5 -4 10 3 6 8 10 11 10 2 0 4 -4 4 -10z"/>
<path d="M2125 670 c-5 -9 -1 -10 14 -5 11 3 21 2 21 -3 0 -5 -9 -12 -21 -15
-29 -8 -19 -31 15 -35 26 -3 27 -1 24 30 -2 25 -8 34 -25 36 -11 2 -24 -2 -28
-8z m35 -34 c0 -3 -4 -8 -10 -11 -5 -3 -10 -1 -10 4 0 6 5 11 10 11 6 0 10 -2
10 -4z"/>
<path d="M2190 643 c0 -18 5 -33 10 -33 6 0 10 11 10 24 0 35 28 42 32 8 2
-21 8 -27 27 -27 13 0 26 6 29 14 3 9 -2 11 -18 6 -18 -6 -21 -3 -18 12 2 11
11 17 22 15 10 -2 15 1 12 7 -4 5 -29 9 -56 8 -50 -1 -50 -1 -50 -34z"/>
<path d="M2347 668 c4 -7 6 -23 4 -35 -1 -13 2 -23 8 -23 6 0 11 16 11 35 0
25 -4 35 -16 35 -10 0 -12 -5 -7 -12z"/>
<path d="M2430 666 c-27 -33 18 -72 48 -42 13 13 14 20 6 34 -15 23 -38 26
-54 8z m40 -22 c0 -8 -7 -14 -15 -14 -15 0 -21 21 -9 33 10 9 24 -2 24 -19z"/>
<path d="M2500 646 c0 -20 5 -36 10 -36 6 0 10 11 10 24 0 14 5 28 10 31 6 4
10 -7 10 -24 0 -17 5 -31 11 -31 6 0 9 14 7 33 -2 27 -8 33 -30 35 -26 3 -28
1 -28 -32z"/>
<path d="M670 515 l0 -45 38 1 c35 1 35 2 8 8 -38 8 -47 31 -12 31 14 0 26 4
26 9 0 5 -8 7 -19 4 -10 -3 -22 0 -25 6 -5 7 4 11 23 11 17 0 31 5 31 10 0 6
-16 10 -35 10 -35 0 -35 0 -35 -45z"/>
<path d="M823 545 c-12 -21 -4 -75 11 -75 7 0 11 15 9 41 -2 48 -8 57 -20 34z"/>
<path d="M860 550 c0 -5 5 -10 10 -10 6 0 10 5 10 10 0 6 -4 10 -10 10 -5 0
-10 -4 -10 -10z"/>
<path d="M1126 519 c-9 -23 -14 -44 -10 -48 4 -3 9 0 11 7 3 6 13 12 23 12 10
0 20 -6 23 -12 2 -7 8 -10 12 -6 9 9 -18 81 -32 85 -6 2 -18 -15 -27 -38z m34
-4 c0 -8 -4 -15 -10 -15 -5 0 -10 7 -10 15 0 8 5 15 10 15 6 0 10 -7 10 -15z"/>
<path d="M1433 545 c-12 -21 -4 -75 11 -75 7 0 11 15 9 41 -2 48 -8 57 -20 34z"/>
<path d="M1470 550 c0 -5 5 -10 10 -10 6 0 10 5 10 10 0 6 -4 10 -10 10 -5 0
-10 -4 -10 -10z"/>
<path d="M1512 548 c-10 -12 -9 -35 4 -76 2 -7 8 -11 14 -7 6 4 5 13 -3 26 -9
14 -9 22 -1 27 6 4 8 15 5 25 -6 16 -9 17 -19 5z"/>
<path d="M1840 546 c0 -8 -8 -13 -17 -12 -13 1 -19 -8 -21 -31 -3 -31 -1 -33
27 -33 30 0 31 1 31 45 0 25 -4 45 -10 45 -5 0 -10 -6 -10 -14z m0 -46 c0 -21
-15 -27 -25 -10 -7 12 2 30 16 30 5 0 9 -9 9 -20z"/>
<path d="M1910 515 c0 -26 5 -45 11 -45 7 0 10 12 7 29 -2 17 -1 28 4 25 4 -3
8 -16 8 -30 0 -37 28 -30 33 9 l4 32 1 -32 c3 -50 22 -39 22 12 0 55 -25 63
-38 13 l-9 -33 -7 33 c-12 50 -36 41 -36 -13z"/>
<path d="M2130 545 c0 -9 -7 -15 -16 -13 -9 2 -21 -4 -27 -13 -16 -25 -1 -49
30 -49 26 0 28 3 29 45 1 25 -2 45 -7 45 -5 0 -9 -7 -9 -15z m-5 -45 c0 -7 -6
-15 -12 -17 -8 -3 -13 4 -13 17 0 13 5 20 13 18 6 -3 12 -11 12 -18z"/>
<path d="M2160 550 c0 -5 5 -10 10 -10 6 0 10 5 10 10 0 6 -4 10 -10 10 -5 0
-10 -4 -10 -10z"/>
<path d="M758 533 c-3 -4 -5 -20 -6 -35 -2 -24 2 -28 27 -28 27 0 28 2 22 32
-6 31 -34 50 -43 31z m29 -19 c-3 -3 -12 -4 -19 -1 -8 3 -5 6 6 6 11 1 17 -2
13 -5z m-2 -24 c-3 -5 -11 -10 -16 -10 -6 0 -7 5 -4 10 3 6 11 10 16 10 6 0 7
-4 4 -10z"/>
<path d="M900 503 c0 -18 4 -33 10 -33 5 0 9 10 7 21 -1 12 4 24 11 26 7 3 12
-5 12 -21 0 -14 5 -26 10 -26 14 0 12 47 -2 56 -31 19 -48 11 -48 -23z"/>
<path d="M980 525 c-18 -22 -8 -50 18 -49 12 0 21 -4 19 -10 -2 -6 -14 -10
-27 -8 -14 2 -20 0 -16 -7 8 -12 42 -15 49 -3 3 4 7 25 8 46 3 33 1 40 -18 42
-11 2 -26 -3 -33 -11z m35 -25 c0 -7 -6 -15 -12 -17 -8 -3 -13 4 -13 17 0 13
5 20 13 18 6 -3 12 -11 12 -18z"/>
<path d="M1209 536 c-5 -12 -3 -96 3 -96 4 0 8 7 8 15 0 8 9 15 20 15 43 0 35
64 -9 66 -11 1 -21 1 -22 0z m41 -36 c0 -11 -4 -20 -9 -20 -14 0 -23 18 -16
30 10 17 25 11 25 -10z"/>
<path d="M1280 488 c0 -26 5 -48 10 -48 6 0 10 7 10 15 0 8 9 15 21 15 17 0
20 5 17 33 -3 27 -7 32 -30 32 -27 1 -28 -1 -28 -47z m48 15 c-4 -22 -22 -20
-26 1 -2 10 3 16 13 16 10 0 15 -7 13 -17z"/>
<path d="M1373 533 c-7 -3 -13 -18 -13 -34 0 -24 4 -29 25 -29 14 0 25 4 25
10 0 5 -6 7 -14 4 -8 -3 -17 -1 -21 5 -4 7 4 11 19 11 18 0 24 4 20 14 -7 17
-24 25 -41 19z m24 -19 c-3 -3 -12 -4 -19 -1 -8 3 -5 6 6 6 11 1 17 -2 13 -5z"/>
<path d="M1550 521 c-5 -11 -7 -27 -4 -35 7 -18 54 -22 54 -5 0 6 -9 8 -20 4
-11 -3 -20 -2 -20 4 0 5 12 11 27 13 26 3 26 4 9 21 -22 22 -33 22 -46 -2z
m37 -7 c-3 -3 -12 -4 -19 -1 -8 3 -5 6 6 6 11 1 17 -2 13 -5z"/>
<path d="M1663 533 c-22 -8 -14 -21 10 -17 l22 5 -22 -12 c-33 -17 -29 -39 7
-39 25 0 30 4 30 23 0 13 -5 28 -12 35 -13 13 -16 13 -35 5z m27 -43 c0 -5 -4
-10 -10 -10 -5 0 -10 5 -10 10 0 6 5 10 10 10 6 0 10 -4 10 -10z"/>
<path d="M1720 503 c0 -18 5 -33 10 -33 6 0 10 11 10 25 0 14 5 25 10 25 6 0
10 -11 10 -25 0 -14 5 -25 11 -25 6 0 9 14 7 33 -3 27 -7 32 -30 32 -25 1 -28
-3 -28 -32z"/>
<path d="M2020 525 c-26 -32 15 -75 44 -45 8 9 6 11 -11 5 -14 -4 -23 -2 -23
4 0 6 9 11 20 11 23 0 26 10 8 28 -16 16 -23 15 -38 -3z"/>
<path d="M2205 530 c-3 -5 -4 -14 -1 -19 4 -5 1 -11 -6 -13 -19 -7 1 -28 28
-28 20 0 24 5 24 29 0 17 -6 31 -16 35 -21 8 -22 8 -29 -4z m25 -40 c0 -5 -4
-10 -10 -10 -5 0 -10 5 -10 10 0 6 5 10 10 10 6 0 10 -4 10 -10z"/>
<path d="M860 500 c0 -16 5 -30 10 -30 6 0 10 14 10 30 0 17 -4 30 -10 30 -5
0 -10 -13 -10 -30z"/>
<path d="M1470 500 c0 -16 5 -30 10 -30 6 0 10 14 10 30 0 17 -4 30 -10 30 -5
0 -10 -13 -10 -30z"/>
<path d="M2160 500 c0 -16 5 -30 10 -30 6 0 10 14 10 30 0 17 -4 30 -10 30 -5
0 -10 -13 -10 -30z"/>
<path d="M1053 471 c0 -11 5 -17 9 -15 11 7 10 34 -1 34 -6 0 -9 -9 -8 -19z"/>
</g>
</svg>
