<?xml version="1.0" standalone="no"?>
<!DOCTYPE svg PUBLIC "-//W3C//DTD SVG 20010904//EN"
 "http://www.w3.org/TR/2001/REC-SVG-20010904/DTD/svg10.dtd">
<svg version="1.0" xmlns="http://www.w3.org/2000/svg"
 width="300.000000pt" height="300.000000pt" viewBox="0 0 300.000000 300.000000"
 preserveAspectRatio="xMidYMid meet">
<metadata>
Created by potrace 1.10, written by Peter Selinger 2001-2011
</metadata>
<g transform="translate(0.000000,300.000000) scale(0.100000,-0.100000)"
fill="#000000" stroke="none">
<path d="M2557 2515 c-32 -19 -60 -35 -63 -35 -3 0 -20 -11 -38 -25 -18 -14
-36 -25 -40 -25 -4 0 -37 -20 -73 -45 l-67 -45 3 -45 c1 -26 -2 -45 -8 -45 -5
0 -11 18 -13 40 l-3 41 -49 -44 -49 -43 38 -32 39 -31 66 62 c36 34 100 93
142 131 52 47 75 73 71 84 -5 12 -1 14 15 10 15 -4 19 -2 15 8 -3 8 0 14 5 14
6 0 14 -9 17 -20 3 -11 11 -20 16 -20 14 0 11 9 -8 28 -16 16 -15 17 3 21 10
2 25 8 32 13 9 8 12 5 12 -11 0 -15 4 -20 13 -15 6 4 3 -2 -7 -14 -12 -14 -14
-22 -7 -22 7 0 10 -4 6 -9 -3 -6 -18 -6 -35 -1 -25 7 -32 5 -40 -11 -6 -10
-18 -19 -26 -19 -9 0 -23 -7 -32 -16 -15 -15 -14 -16 8 -9 61 18 126 41 138
48 23 15 9 117 -16 117 -4 0 -33 -16 -65 -35z m-77 -93 c0 -4 -20 -16 -44 -27
-24 -11 -40 -23 -34 -26 8 -5 -4 -17 -67 -67 -15 -12 -35 -3 -35 16 0 8 2 13
5 10 3 -3 20 7 37 22 59 54 68 59 83 54 9 -4 15 -3 14 2 -1 5 -1 11 0 14 2 9
41 10 41 2z m-245 -143 c-4 -5 1 -20 12 -31 18 -21 17 -21 -1 -15 -13 5 -17 3
-13 -7 4 -10 1 -13 -8 -10 -15 6 -17 42 -2 62 11 15 21 16 12 1z m70 2 c3 -5
2 -12 -3 -15 -5 -3 -9 1 -9 9 0 17 3 19 12 6z"/>
<path d="M2373 2355 c0 -8 4 -12 9 -9 5 3 6 10 3 15 -9 13 -12 11 -12 -6z"/>
<path d="M2560 2378 c-36 -10 -74 -19 -85 -21 -11 -1 -30 -9 -41 -17 -31 -22
-184 -163 -184 -169 0 -3 43 -6 95 -6 107 0 107 0 202 108 l42 47 -47 0 c-26
0 -64 -5 -85 -11 -22 -6 -41 -8 -44 -5 -11 11 53 28 119 33 58 5 70 9 84 30 8
14 14 26 12 27 -2 1 -32 -6 -68 -16z m-30 -88 c0 -10 -30 -21 -40 -15 -5 3
-11 1 -15 -5 -3 -5 -1 -10 5 -10 7 0 8 -5 3 -12 -4 -7 -8 -16 -8 -20 0 -14
-51 -44 -77 -46 -22 -1 -26 2 -22 16 4 10 3 13 -3 6 -4 -6 -24 -15 -43 -18
-26 -5 -31 -4 -20 3 8 6 11 11 7 11 -4 0 -3 9 3 21 9 17 19 20 52 17 30 -2 42
1 45 12 4 12 3 12 -5 1 -7 -9 -15 -10 -26 -4 -16 9 -16 11 -1 23 8 7 18 10 22
7 3 -4 13 -1 21 6 13 10 14 8 10 -16 -3 -15 -1 -30 3 -33 5 -3 9 11 9 31 0 21
4 34 10 30 5 -3 17 -2 27 3 18 10 43 5 43 -8z"/>
<path d="M2411 2216 c-9 -10 -8 -15 2 -19 8 -3 13 3 14 14 2 23 -1 24 -16 5z"/>
<path d="M965 2310 c-116 -17 -237 -114 -294 -235 -43 -91 -61 -178 -61 -296
0 -220 76 -330 345 -499 209 -131 272 -178 365 -270 103 -102 125 -128 142
-166 14 -30 24 -30 39 -1 36 66 155 193 254 268 17 13 32 26 35 29 5 5 67 44
260 163 36 22 67 43 70 46 3 3 21 18 40 33 145 109 210 258 196 445 -7 88 -31
192 -47 208 -7 7 -48 -29 -122 -105 -61 -63 -121 -120 -133 -126 -11 -6 -42
-14 -68 -18 -54 -8 -58 -19 -15 -36 27 -11 29 -15 16 -28 -12 -12 -22 -12 -46
-4 -31 11 -32 10 -67 -43 -33 -50 -38 -53 -60 -43 -13 6 -24 14 -24 17 0 3 16
24 35 45 19 22 32 43 29 48 -3 4 -27 8 -53 8 -54 0 -101 -28 -101 -60 0 -22
41 -53 71 -55 31 -2 119 -73 134 -108 32 -76 -55 -153 -145 -127 -41 12 -100
51 -100 67 0 23 20 24 51 2 41 -29 110 -37 132 -14 25 24 21 68 -8 95 -14 13
-26 22 -28 19 -2 -2 -10 -16 -19 -30 -16 -25 -73 -57 -84 -47 -3 3 4 29 15 57
18 48 18 53 3 58 -37 13 -62 46 -62 82 1 40 12 58 54 85 24 15 42 18 102 13
69 -5 74 -4 89 19 9 14 26 64 37 112 24 101 30 113 89 194 l44 61 18 -43 c24
-54 35 -44 12 12 -14 35 -14 44 -3 53 7 6 22 20 32 33 l19 22 -64 29 c-70 33
-163 44 -253 29 -81 -12 -168 -62 -239 -137 -59 -62 -77 -91 -108 -166 -10
-26 -13 -27 -16 -10 -8 41 -28 81 -63 130 -72 98 -181 167 -291 185 -70 11
-81 11 -154 0z m123 -16 c17 -4 22 -10 18 -21 -5 -13 -4 -14 8 -4 8 7 20 10
26 6 5 -3 10 -2 10 4 0 6 7 8 16 4 8 -3 13 -11 11 -18 -3 -6 1 -12 9 -12 7 0
11 4 8 9 -10 16 13 8 35 -13 12 -11 29 -18 37 -15 8 3 14 0 14 -8 0 -7 11 -19
25 -26 13 -7 21 -18 18 -23 -4 -6 0 -8 10 -4 11 4 14 2 11 -7 -3 -8 4 -16 16
-19 17 -4 20 -10 15 -28 -5 -14 -4 -19 4 -15 6 4 11 2 11 -4 0 -6 4 -8 10 -5
6 3 7 -1 4 -9 -4 -10 -1 -16 7 -16 8 0 24 -22 36 -49 18 -41 25 -49 42 -44 14
3 24 18 31 43 6 21 17 43 25 50 8 7 15 19 15 27 0 8 5 11 10 8 6 -3 10 -1 10
6 0 7 9 9 23 6 21 -6 21 -5 4 8 -18 13 -18 14 3 35 12 12 28 19 36 16 7 -3 13
0 11 6 -1 6 4 13 12 16 9 3 11 0 6 -8 -6 -9 -4 -11 5 -5 10 6 10 11 -4 20 -15
11 -14 13 6 20 13 4 25 8 28 9 3 1 16 6 30 10 14 5 37 17 52 27 29 21 43 24
33 9 -3 -5 3 -10 14 -10 10 0 21 6 24 13 3 9 9 9 28 -1 23 -12 67 -11 100 3
10 3 20 1 24 -4 3 -6 11 -9 16 -5 15 9 66 -15 74 -33 8 -23 -34 -64 -59 -58
-12 3 -16 2 -9 -1 7 -3 9 -12 6 -20 -3 -7 -9 -11 -14 -8 -5 3 -6 -3 -2 -12 5
-13 3 -16 -10 -11 -12 4 -14 2 -10 -11 6 -15 5 -15 -10 -3 -13 10 -17 11 -17
1 0 -7 -8 -19 -17 -26 -17 -13 -17 -14 0 -8 15 6 15 2 -5 -35 -21 -40 -38 -53
-38 -29 0 6 -3 8 -7 5 -3 -4 1 -15 11 -26 20 -22 13 -65 -14 -84 -12 -8 -16
-23 -14 -49 2 -21 -1 -38 -7 -38 -6 0 -7 -4 -4 -10 3 -5 2 -10 -4 -10 -5 0
-15 8 -21 18 -10 15 -11 15 -7 -4 4 -17 0 -20 -19 -16 -13 2 -24 8 -24 13 0 5
-5 9 -11 9 -5 0 -8 -4 -5 -9 3 -5 -5 -9 -19 -10 -14 -1 -36 -1 -50 -2 -15 -1
-22 -5 -18 -12 4 -6 0 -8 -11 -4 -12 5 -19 -1 -27 -20 -6 -15 -14 -30 -19 -33
-13 -8 -21 -78 -9 -85 6 -4 5 -13 -1 -25 -8 -15 -6 -17 10 -13 12 3 22 -1 26
-11 3 -9 10 -14 14 -11 17 10 20 -13 5 -41 -7 -15 -11 -32 -8 -37 4 -6 -5 -7
-23 -3 -16 4 -24 3 -17 -1 18 -13 -1 -37 -23 -29 -18 6 -18 5 0 -9 11 -8 16
-18 12 -22 -4 -4 10 -17 31 -30 25 -15 32 -23 20 -23 -10 0 -16 -4 -12 -10 4
-6 15 -6 30 0 16 6 25 6 25 0 0 -6 9 -10 21 -10 11 0 29 -5 40 -10 13 -7 19
-7 19 0 0 5 16 10 36 10 27 0 35 4 31 14 -4 10 3 17 21 21 16 3 28 13 29 23 1
9 5 32 9 50 4 21 2 32 -5 32 -6 0 -11 8 -11 19 0 10 -13 32 -30 49 -25 27 -27
33 -15 45 8 8 11 18 7 21 -3 4 3 9 15 12 12 3 24 12 27 20 4 9 15 12 35 8 23
-5 32 -2 37 10 3 9 14 16 23 17 10 0 11 2 4 6 -14 5 -18 34 -5 32 19 -3 25 2
12 11 -13 8 -12 10 3 10 29 0 31 1 50 17 9 9 17 13 17 9 0 -4 9 2 21 13 12 11
27 17 34 14 8 -2 19 5 25 17 7 13 8 20 2 16 -19 -12 -24 15 -6 35 9 10 19 17
22 14 3 -2 18 11 35 30 16 19 36 35 44 35 8 0 12 4 9 9 -3 5 1 12 10 15 12 5
15 2 10 -10 -3 -9 -3 -21 1 -27 4 -7 8 -23 9 -37 1 -14 4 -40 7 -58 3 -19 2
-30 -4 -27 -5 4 -9 -1 -9 -9 0 -10 6 -13 18 -9 15 6 15 5 3 -11 -12 -14 -12
-19 -2 -25 10 -7 10 -13 -1 -31 -10 -18 -10 -24 -1 -27 9 -3 10 -10 3 -23 -5
-10 -11 -39 -12 -64 -2 -30 -8 -46 -16 -46 -7 0 -10 5 -7 10 3 6 2 10 -4 10
-5 0 -13 -4 -16 -10 -3 -5 -1 -10 6 -10 7 0 2 -12 -12 -27 -16 -19 -18 -23 -4
-12 39 31 49 33 29 6 -10 -15 -23 -27 -27 -27 -5 0 -5 -5 -2 -11 9 -13 -23
-49 -43 -49 -8 0 -12 -6 -8 -15 3 -8 0 -15 -6 -15 -6 0 -17 -8 -24 -17 -12
-16 -15 -16 -25 -3 -9 12 -10 11 -6 -8 4 -17 2 -22 -8 -18 -7 2 -15 -4 -19
-16 -4 -18 -7 -19 -21 -8 -14 11 -16 11 -13 -1 2 -8 -3 -13 -10 -11 -8 1 -11
-2 -8 -6 9 -16 -32 -46 -46 -35 -9 8 -19 5 -33 -10 l-20 -20 25 12 c24 12 24
11 5 -4 -11 -8 -26 -13 -33 -10 -9 3 -12 0 -9 -9 3 -8 -1 -17 -9 -20 -8 -3
-14 0 -15 7 0 9 -2 9 -6 0 -2 -7 -11 -13 -20 -13 -8 0 -13 -5 -11 -12 5 -13
-72 -59 -85 -51 -4 2 -6 -1 -5 -7 2 -7 -6 -14 -16 -16 -11 -1 -23 -10 -28 -18
-5 -8 -15 -13 -23 -10 -18 7 -20 -12 -2 -20 8 -4 7 -5 -3 -4 -8 1 -26 -4 -40
-10 -14 -6 -19 -11 -12 -11 7 -1 10 -6 7 -12 -4 -6 -13 -8 -21 -5 -9 3 -11 0
-7 -11 5 -13 2 -15 -15 -11 -13 4 -20 2 -16 -4 7 -12 -27 -38 -40 -31 -5 4 -6
1 -2 -5 4 -7 2 -12 -4 -12 -7 0 -9 -7 -6 -17 4 -10 4 -14 0 -11 -7 8 -44 -34
-44 -51 0 -5 -8 -16 -18 -23 -10 -7 -21 -21 -25 -31 -6 -15 -9 -16 -21 -5 -8
7 -12 16 -10 19 2 4 -3 10 -12 13 -15 6 -15 8 1 26 19 22 7 28 -13 8 -21 -21
-35 12 -15 34 18 20 4 25 -15 6 -8 -8 -21 -1 -52 32 -43 45 -49 60 -25 60 8 0
15 5 15 10 0 7 -6 7 -19 0 -26 -13 -47 -4 -93 42 -21 21 -43 38 -48 38 -5 0
-10 5 -10 11 0 6 7 8 16 5 8 -3 12 -2 9 4 -3 6 -18 7 -32 4 -21 -6 -25 -4 -20
8 4 12 0 14 -14 11 -11 -3 -27 1 -37 10 -9 8 -27 18 -38 21 -12 4 -24 16 -27
26 -3 13 -11 18 -21 14 -9 -3 -16 -1 -16 4 0 6 9 14 20 17 21 7 28 25 10 25
-5 0 -10 -3 -10 -8 0 -4 -9 -13 -21 -20 -12 -8 -18 -9 -15 -4 3 6 -6 15 -22
21 -30 13 -68 34 -93 52 -16 11 -15 49 1 49 4 0 19 -9 32 -20 14 -10 28 -16
32 -13 3 3 6 1 6 -7 0 -8 4 -9 13 -3 6 5 24 8 40 7 15 -2 27 1 27 7 0 5 5 9
10 9 16 0 12 -22 -7 -36 -17 -12 -17 -13 -1 -14 9 0 19 8 23 19 3 10 15 23 28
29 25 12 25 12 -88 15 -92 2 -110 9 -95 37 8 16 14 17 44 8 66 -21 143 16 167
80 27 70 -3 162 -62 194 -38 20 -131 24 -175 8 l-27 -11 7 -159 c6 -155 6
-160 -13 -160 -28 0 -32 35 -29 225 3 147 4 160 22 163 10 2 21 -1 25 -6 4 -7
21 -7 53 -1 62 14 148 -4 188 -38 82 -69 80 -242 -4 -308 -29 -23 -29 -25 -8
-25 12 0 22 4 22 9 0 5 8 7 18 4 14 -3 19 1 18 19 -1 15 4 22 14 21 10 -2 15
6 16 25 2 39 10 77 18 90 4 7 2 12 -3 12 -17 0 -13 21 7 36 16 13 16 14 -2 7
-15 -5 -18 -3 -13 10 3 9 2 19 -4 23 -5 3 -9 13 -8 22 3 34 -1 41 -18 35 -16
-6 -15 -3 2 17 l20 23 -23 -12 c-28 -15 -40 -8 -22 14 8 9 8 15 2 15 -6 0 -14
-5 -17 -10 -7 -11 -25 -4 -25 10 0 5 7 10 17 12 14 3 14 5 -2 18 -11 8 -16 10
-12 3 12 -20 -13 -26 -38 -9 -14 9 -25 12 -25 7 0 -4 -11 -8 -25 -8 -14 0 -25
3 -25 7 0 3 -25 3 -55 -1 -31 -4 -70 -3 -88 2 -45 13 -49 12 -42 -11 3 -11 2
-20 -3 -20 -5 0 -8 -54 -6 -130 1 -77 -1 -128 -7 -125 -5 4 -17 1 -26 -5 -16
-9 -15 -10 5 -5 22 6 27 -1 23 -33 -1 -8 3 -19 9 -27 7 -8 7 -15 1 -19 -5 -4
-15 9 -22 29 -9 25 -16 32 -25 24 -8 -7 -13 -3 -18 14 -3 13 -17 36 -30 52
-19 22 -22 32 -14 42 8 10 6 13 -8 13 -18 1 -18 1 0 15 20 15 20 15 0 15 -13
0 -20 7 -21 21 -1 14 3 19 12 15 9 -3 12 0 9 9 -3 7 -12 16 -20 19 -12 5 -14
25 -10 112 3 59 9 110 13 113 4 3 9 19 10 35 1 16 10 37 19 48 17 18 17 19 -2
13 -17 -6 -17 -5 3 13 12 11 20 22 17 25 -7 7 13 45 37 71 11 11 19 23 19 27
0 4 13 16 29 25 17 10 28 21 25 26 -3 4 2 8 10 8 9 0 16 5 16 10 0 6 4 10 10
10 5 0 7 -8 3 -17 -3 -10 -3 -15 1 -11 4 3 9 14 10 23 3 21 92 58 121 51 11
-3 27 -1 34 4 16 9 43 11 79 4z m852 -4 c0 -5 -9 -10 -20 -10 -11 0 -20 5 -20
10 0 6 9 10 20 10 11 0 20 -4 20 -10z m30 0 c0 -5 -5 -10 -11 -10 -5 0 -7 5
-4 10 3 6 8 10 11 10 2 0 4 -4 4 -10z m200 -440 c0 -5 -4 -10 -10 -10 -5 0
-10 5 -10 10 0 6 5 10 10 10 6 0 10 -4 10 -10z m-360 -132 c0 -22 -14 -35 -33
-32 -14 2 -16 -1 -7 -11 10 -12 6 -12 -19 -2 -33 12 -41 27 -15 27 9 0 12 5 8
12 -5 7 -2 9 8 6 8 -4 21 -2 29 3 20 12 29 11 29 -3z m-810 -4 c0 -2 -10 -13
-22 -25 -22 -21 -8 -18 21 5 16 12 41 17 41 7 0 -4 8 -16 18 -27 17 -20 20
-28 30 -74 5 -22 3 -24 -11 -11 -22 18 -22 7 0 -15 13 -13 14 -19 5 -22 -7 -2
-10 -8 -6 -13 3 -5 0 -9 -6 -9 -6 0 -8 -5 -4 -12 5 -7 2 -9 -9 -5 -11 4 -14 2
-11 -7 3 -7 -6 -20 -20 -30 -31 -20 -57 -21 -30 -1 13 10 15 14 5 15 -8 0 -23
-7 -33 -16 -11 -11 -22 -14 -30 -8 -19 14 -48 11 -58 -6 -7 -11 -10 -6 -9 20
0 19 -1 46 -3 60 -2 14 -1 35 4 48 4 12 4 22 -1 22 -4 0 -6 11 -3 25 2 14 8
25 13 25 5 0 9 5 9 10 0 6 -4 9 -9 8 -5 -2 -11 2 -12 7 -2 6 8 11 24 13 15 2
25 7 22 11 -2 5 16 8 40 8 25 0 45 -1 45 -3z m841 -207 c9 -17 9 -20 -1 -10
-7 6 -20 9 -29 5 -13 -5 -14 -3 -4 10 7 8 9 19 5 23 -4 5 -1 5 5 1 7 -4 18
-17 24 -29z m-11 -24 c0 -6 -5 -15 -12 -19 -7 -4 -8 -3 -4 4 4 7 3 12 -3 12
-5 0 -11 -4 -13 -9 -1 -5 -16 -7 -32 -4 l-29 6 23 12 c29 16 70 14 70 -2z"/>
<path d="M1060 2280 c-9 -6 -10 -10 -3 -10 6 0 15 5 18 10 8 12 4 12 -15 0z"/>
<path d="M1015 2270 c3 -5 8 -10 11 -10 2 0 4 5 4 10 0 6 -5 10 -11 10 -5 0
-7 -4 -4 -10z"/>
<path d="M1979 2253 c-13 -15 -12 -15 9 -4 23 12 28 21 13 21 -5 0 -15 -7 -22
-17z"/>
<path d="M2050 2260 c0 -5 -9 -19 -20 -30 -15 -15 -16 -20 -6 -20 8 0 17 9 21
19 4 14 11 18 23 14 15 -6 15 -5 3 10 -15 19 -21 21 -21 7z"/>
<path d="M885 2250 c-3 -5 1 -10 10 -10 9 0 13 5 10 10 -3 6 -8 10 -10 10 -2
0 -7 -4 -10 -10z"/>
<path d="M920 2250 c0 -5 5 -10 10 -10 6 0 10 5 10 10 0 6 -4 10 -10 10 -5 0
-10 -4 -10 -10z"/>
<path d="M1890 2250 c-9 -6 -10 -10 -3 -10 6 0 15 5 18 10 8 12 4 12 -15 0z"/>
<path d="M1153 2235 c0 -8 4 -12 9 -9 5 3 6 10 3 15 -9 13 -12 11 -12 -6z"/>
<path d="M1780 2235 c-7 -9 -8 -15 -2 -15 5 0 12 7 16 15 3 8 4 15 2 15 -2 0
-9 -7 -16 -15z"/>
<path d="M1810 2230 c-13 -8 -12 -10 3 -10 9 0 17 5 17 10 0 12 -1 12 -20 0z"/>
<path d="M2085 2230 c-3 -5 -1 -10 4 -10 6 0 11 5 11 10 0 6 -2 10 -4 10 -3 0
-8 -4 -11 -10z"/>
<path d="M1065 2219 c-11 -16 -1 -19 13 -3 7 8 8 14 3 14 -5 0 -13 -5 -16 -11z"/>
<path d="M1960 2220 c0 -5 7 -7 15 -4 8 4 15 8 15 10 0 2 -7 4 -15 4 -8 0 -15
-4 -15 -10z"/>
<path d="M895 2200 c-3 -5 -2 -10 4 -10 5 0 13 5 16 10 3 6 2 10 -4 10 -5 0
-13 -4 -16 -10z"/>
<path d="M1160 2185 c-8 -9 -8 -15 -2 -15 12 0 26 19 19 26 -2 2 -10 -2 -17
-11z"/>
<path d="M1251 2183 c0 -11 3 -13 6 -5 2 6 10 9 15 6 7 -4 8 -2 4 4 -11 18
-26 14 -25 -5z"/>
<path d="M1866 2184 c-5 -14 -4 -15 9 -4 17 14 19 20 6 20 -5 0 -12 -7 -15
-16z"/>
<path d="M1975 2180 c3 -5 8 -10 11 -10 2 0 4 5 4 10 0 6 -5 10 -11 10 -5 0
-7 -4 -4 -10z"/>
<path d="M780 2171 c0 -6 4 -13 10 -16 6 -3 7 1 4 9 -7 18 -14 21 -14 7z"/>
<path d="M1070 2166 c0 -9 30 -14 35 -6 4 6 -3 10 -14 10 -12 0 -21 -2 -21 -4z"/>
<path d="M1930 2159 c0 -5 5 -7 10 -4 6 3 10 8 10 11 0 2 -4 4 -10 4 -5 0 -10
-5 -10 -11z"/>
<path d="M1050 2144 c0 -8 5 -12 10 -9 6 4 8 11 5 16 -9 14 -15 11 -15 -7z"/>
<path d="M1290 2150 c0 -5 7 -7 15 -4 8 4 15 8 15 10 0 2 -7 4 -15 4 -8 0 -15
-4 -15 -10z"/>
<path d="M1610 2156 c0 -2 8 -10 18 -17 15 -13 16 -12 3 4 -13 16 -21 21 -21
13z"/>
<path d="M1678 2153 c7 -3 16 -2 19 1 4 3 -2 6 -13 5 -11 0 -14 -3 -6 -6z"/>
<path d="M1728 2153 c7 -3 16 -2 19 1 4 3 -2 6 -13 5 -11 0 -14 -3 -6 -6z"/>
<path d="M1960 2156 c0 -2 7 -6 15 -10 8 -3 15 -1 15 4 0 6 -7 10 -15 10 -8 0
-15 -2 -15 -4z"/>
<path d="M745 2139 c-4 -6 -5 -12 -2 -15 2 -3 7 2 10 11 7 17 1 20 -8 4z"/>
<path d="M1250 2134 c0 -8 5 -12 10 -9 6 3 10 10 10 16 0 5 -4 9 -10 9 -5 0
-10 -7 -10 -16z"/>
<path d="M1657 2139 c7 -7 15 -10 18 -7 3 3 -2 9 -12 12 -14 6 -15 5 -6 -5z"/>
<path d="M1135 2130 c3 -5 8 -10 11 -10 2 0 4 5 4 10 0 6 -5 10 -11 10 -5 0
-7 -4 -4 -10z"/>
<path d="M1180 2134 c0 -4 8 -13 18 -20 10 -8 12 -13 5 -14 -7 0 -13 -5 -13
-10 0 -6 8 -5 19 2 19 12 19 12 -1 30 -23 19 -28 22 -28 12z"/>
<path d="M1315 2130 c3 -5 8 -10 11 -10 2 0 4 5 4 10 0 6 -5 10 -11 10 -5 0
-7 -4 -4 -10z"/>
<path d="M1730 2113 c0 -11 3 -14 8 -7 4 6 14 14 22 17 10 4 8 6 -7 6 -16 1
-23 -5 -23 -16z"/>
<path d="M1790 2109 c0 -5 5 -7 10 -4 6 3 10 8 10 11 0 2 -4 4 -10 4 -5 0 -10
-5 -10 -11z"/>
<path d="M1255 2100 c-3 -5 -2 -10 4 -10 5 0 13 5 16 10 3 6 2 10 -4 10 -5 0
-13 -4 -16 -10z"/>
<path d="M1295 2100 c-3 -5 -1 -10 4 -10 6 0 11 5 11 10 0 6 -2 10 -4 10 -3 0
-8 -4 -11 -10z"/>
<path d="M1930 2102 c0 -6 -8 -13 -17 -15 -16 -4 -16 -5 -1 -6 18 -1 34 16 24
26 -3 4 -6 1 -6 -5z"/>
<path d="M830 2086 c0 -2 7 -7 16 -10 8 -3 12 -2 9 4 -6 10 -25 14 -25 6z"/>
<path d="M888 2083 c7 -3 16 -2 19 1 4 3 -2 6 -13 5 -11 0 -14 -3 -6 -6z"/>
<path d="M1058 2083 c7 -3 16 -2 19 1 4 3 -2 6 -13 5 -11 0 -14 -3 -6 -6z"/>
<path d="M1819 2073 c-13 -16 -12 -17 4 -4 9 7 17 15 17 17 0 8 -8 3 -21 -13z"/>
<path d="M1233 2065 c0 -8 4 -12 9 -9 5 3 6 10 3 15 -9 13 -12 11 -12 -6z"/>
<path d="M1892 2064 c9 -9 21 -15 27 -13 6 2 -2 10 -17 17 -25 11 -25 11 -10
-4z"/>
<path d="M915 2060 c-3 -5 -1 -10 4 -10 6 0 11 5 11 10 0 6 -2 10 -4 10 -3 0
-8 -4 -11 -10z"/>
<path d="M1020 2060 c0 -5 5 -10 10 -10 6 0 10 5 10 10 0 6 -4 10 -10 10 -5 0
-10 -4 -10 -10z"/>
<path d="M1097 2056 c-4 -10 -1 -13 9 -9 7 3 14 9 14 14 0 14 -17 10 -23 -5z"/>
<path d="M1158 2063 c7 -3 16 -2 19 1 4 3 -2 6 -13 5 -11 0 -14 -3 -6 -6z"/>
<path d="M1645 2060 c-3 -6 1 -7 9 -4 18 7 21 14 7 14 -6 0 -13 -4 -16 -10z"/>
<path d="M1705 2060 c-3 -6 1 -7 9 -4 18 7 21 14 7 14 -6 0 -13 -4 -16 -10z"/>
<path d="M1375 2050 c4 -6 11 -8 16 -5 14 9 11 15 -7 15 -8 0 -12 -5 -9 -10z"/>
<path d="M1860 2050 c-13 -8 -12 -10 3 -10 9 0 17 5 17 10 0 12 -1 12 -20 0z"/>
<path d="M810 2040 c-12 -7 -10 -9 7 -7 12 0 19 5 17 9 -6 10 -6 10 -24 -2z"/>
<path d="M1153 2020 c-18 -17 -37 -30 -44 -30 -7 0 -10 -3 -6 -6 9 -9 67 19
67 33 0 7 8 17 18 22 9 6 13 11 7 11 -5 0 -24 -14 -42 -30z"/>
<path d="M1810 2041 c0 -5 -8 -11 -17 -13 -13 -3 -9 -6 10 -10 32 -6 41 2 21
20 -8 7 -14 8 -14 3z"/>
<path d="M1260 2028 c-12 -8 -12 -9 2 -5 9 3 19 1 22 -6 3 -9 5 -9 5 0 1 18
-13 23 -29 11z"/>
<path d="M1545 2030 c3 -5 8 -10 11 -10 2 0 4 5 4 10 0 6 -5 10 -11 10 -5 0
-7 -4 -4 -10z"/>
<path d="M1755 2030 c3 -5 8 -10 11 -10 2 0 4 5 4 10 0 6 -5 10 -11 10 -5 0
-7 -4 -4 -10z"/>
<path d="M997 2019 c7 -7 15 -10 18 -7 3 3 -2 9 -12 12 -14 6 -15 5 -6 -5z"/>
<path d="M1405 2019 c-4 -6 -5 -12 -2 -15 2 -3 7 2 10 11 7 17 1 20 -8 4z"/>
<path d="M1635 2020 c3 -5 11 -10 16 -10 6 0 7 5 4 10 -3 6 -11 10 -16 10 -6
0 -7 -4 -4 -10z"/>
<path d="M1727 2023 c-10 -9 -9 -33 1 -33 4 0 8 9 8 20 0 23 0 22 -9 13z"/>
<path d="M901 1999 c-9 -16 -8 -19 5 -19 8 0 12 5 9 10 -3 6 -2 10 4 10 5 0
11 -5 13 -11 2 -6 13 -10 23 -7 17 3 15 6 -11 19 -29 15 -32 15 -43 -2z"/>
<path d="M1360 1990 c0 -5 4 -10 9 -10 6 0 13 5 16 10 3 6 -1 10 -9 10 -9 0
-16 -4 -16 -10z"/>
<path d="M1160 1982 c0 -5 7 -9 15 -9 8 0 12 4 9 9 -3 4 -9 8 -15 8 -5 0 -9
-4 -9 -8z"/>
<path d="M1688 1983 c7 -3 16 -2 19 1 4 3 -2 6 -13 5 -11 0 -14 -3 -6 -6z"/>
<path d="M1858 1976 c-23 -17 -23 -26 -1 -26 9 0 13 3 10 7 -4 3 -2 12 4 20
14 16 9 16 -13 -1z"/>
<path d="M1895 1980 c-3 -5 -1 -10 4 -10 6 0 11 5 11 10 0 6 -2 10 -4 10 -3 0
-8 -4 -11 -10z"/>
<path d="M1325 1970 c-3 -5 -2 -10 4 -10 5 0 13 5 16 10 3 6 2 10 -4 10 -5 0
-13 -4 -16 -10z"/>
<path d="M778 1963 c7 -3 16 -2 19 1 4 3 -2 6 -13 5 -11 0 -14 -3 -6 -6z"/>
<path d="M1431 1954 c0 -11 3 -14 6 -6 3 7 2 16 -1 19 -3 4 -6 -2 -5 -13z"/>
<path d="M1648 1963 c7 -3 16 -2 19 1 4 3 -2 6 -13 5 -11 0 -14 -3 -6 -6z"/>
<path d="M1030 1950 c-8 -5 -12 -12 -9 -15 4 -3 12 1 19 10 14 17 11 19 -10 5z"/>
<path d="M1235 1950 c4 -6 11 -8 16 -5 14 9 11 15 -7 15 -8 0 -12 -5 -9 -10z"/>
<path d="M2268 1943 c-16 -18 -21 -56 -7 -47 5 2 6 11 3 18 -3 8 5 21 18 30
12 9 18 16 12 16 -6 0 -18 -8 -26 -17z"/>
<path d="M1190 1940 c20 -13 33 -13 25 0 -3 6 -14 10 -23 10 -15 0 -15 -2 -2
-10z"/>
<path d="M1360 1940 c-9 -6 -10 -10 -3 -10 6 0 15 5 18 10 8 12 4 12 -15 0z"/>
<path d="M1279 1926 c13 -16 54 -29 45 -15 -3 5 -12 9 -20 9 -8 0 -14 5 -14
10 0 6 -5 10 -11 10 -8 0 -8 -4 0 -14z"/>
<path d="M1806 1924 c-6 -15 -4 -15 11 -3 10 7 20 15 22 16 2 2 -3 3 -11 3 -9
0 -19 -7 -22 -16z"/>
<path d="M1840 1915 c-19 -14 -31 -25 -27 -25 3 0 23 11 43 25 20 14 33 25 27
25 -5 0 -24 -11 -43 -25z"/>
<path d="M990 1920 c-12 -8 -10 -10 8 -10 13 0 20 4 17 10 -7 12 -6 12 -25 0z"/>
<path d="M1066 1922 c-3 -5 1 -9 9 -9 8 0 12 4 9 9 -3 4 -7 8 -9 8 -2 0 -6 -4
-9 -8z"/>
<path d="M2220 1910 c0 -5 5 -10 11 -10 5 0 7 5 4 10 -3 6 -8 10 -11 10 -2 0
-4 -4 -4 -10z"/>
<path d="M935 1900 c3 -5 8 -10 11 -10 2 0 4 5 4 10 0 6 -5 10 -11 10 -5 0 -7
-4 -4 -10z"/>
<path d="M1455 1890 c-3 -6 1 -7 9 -4 18 7 21 14 7 14 -6 0 -13 -4 -16 -10z"/>
<path d="M1839 1880 l-24 -20 28 11 c15 7 27 16 27 21 0 12 -5 10 -31 -12z"/>
<path d="M2195 1890 c3 -5 8 -10 11 -10 2 0 4 5 4 10 0 6 -5 10 -11 10 -5 0
-7 -4 -4 -10z"/>
<path d="M658 1883 c7 -3 16 -2 19 1 4 3 -2 6 -13 5 -11 0 -14 -3 -6 -6z"/>
<path d="M1740 1879 c0 -5 5 -7 10 -4 6 3 10 8 10 11 0 2 -4 4 -10 4 -5 0 -10
-5 -10 -11z"/>
<path d="M1777 1879 c7 -7 15 -10 18 -7 3 3 -2 9 -12 12 -14 6 -15 5 -6 -5z"/>
<path d="M750 1868 c0 -4 4 -8 9 -8 6 0 12 4 15 8 3 5 -1 9 -9 9 -8 0 -15 -4
-15 -9z"/>
<path d="M953 1861 c0 -11 5 -18 9 -15 4 3 5 11 1 19 -7 21 -12 19 -10 -4z"/>
<path d="M991 1870 c-9 -5 -4 -7 13 -7 29 0 32 2 13 10 -8 3 -20 2 -26 -3z"/>
<path d="M1170 1870 c0 -5 5 -10 11 -10 5 0 7 5 4 10 -3 6 -8 10 -11 10 -2 0
-4 -4 -4 -10z"/>
<path d="M1570 1876 c0 -2 7 -6 15 -10 8 -3 15 -1 15 4 0 6 -7 10 -15 10 -8 0
-15 -2 -15 -4z"/>
<path d="M1095 1850 c-16 -7 -17 -9 -3 -9 9 -1 20 4 23 9 7 11 7 11 -20 0z"/>
<path d="M1440 1856 c0 -2 7 -6 15 -10 8 -3 15 -1 15 4 0 6 -7 10 -15 10 -8 0
-15 -2 -15 -4z"/>
<path d="M2199 1843 c-13 -15 -12 -15 9 -4 23 12 28 21 13 21 -5 0 -15 -7 -22
-17z"/>
<path d="M1140 1840 c-13 -8 -12 -10 3 -10 9 0 17 5 17 10 0 12 -1 12 -20 0z"/>
<path d="M1225 1839 c-4 -6 -5 -12 -2 -15 2 -3 7 2 10 11 7 17 1 20 -8 4z"/>
<path d="M2256 1833 c-6 -14 -5 -15 5 -6 7 7 10 15 7 18 -3 3 -9 -2 -12 -12z"/>
<path d="M980 1829 c0 -5 5 -7 10 -4 6 3 10 8 10 11 0 2 -4 4 -10 4 -5 0 -10
-5 -10 -11z"/>
<path d="M1265 1830 c-4 -6 -11 -8 -16 -5 -5 4 -9 -1 -9 -9 0 -9 -7 -16 -16
-16 -8 0 -12 -4 -9 -10 3 -5 -2 -10 -12 -10 -15 0 -16 -2 -3 -10 12 -8 13 -10
1 -10 -10 0 -7 -8 9 -25 17 -18 19 -25 9 -26 -8 0 -3 -5 11 -11 21 -9 22 -12
8 -15 -36 -9 -12 -30 25 -24 5 1 6 -3 3 -8 -4 -5 8 -26 25 -45 24 -28 30 -43
27 -66 -3 -17 0 -30 6 -30 6 0 4 -4 -4 -10 -12 -8 -12 -10 3 -16 22 -8 22 -28
0 -20 -16 5 -16 4 1 -8 10 -8 16 -18 13 -23 -3 -4 2 -22 11 -39 16 -28 20 -30
50 -22 18 5 30 13 27 18 -4 6 -1 10 6 10 8 0 8 4 -1 15 -10 12 -10 19 -2 27
15 15 16 31 1 23 -23 -15 3 70 29 92 14 12 28 21 29 19 2 -2 19 12 38 31 19
19 39 32 44 29 5 -4 12 -2 16 4 3 5 1 10 -6 10 -8 0 -8 4 1 15 7 8 15 13 19
11 4 -3 6 10 6 29 -1 24 2 32 12 28 22 -9 15 4 -13 22 -15 9 -23 12 -19 5 4
-7 1 -11 -6 -9 -8 1 -25 1 -39 0 -20 -1 -22 -3 -10 -11 12 -8 10 -10 -8 -10
-13 0 -20 -4 -17 -10 3 -5 1 -10 -5 -10 -6 0 -15 -10 -20 -22 -8 -21 -9 -22
-10 -3 -2 17 -3 16 -9 -4 -4 -14 -13 -27 -20 -29 -9 -3 -11 0 -6 8 5 9 4 11
-4 6 -6 -4 -9 -11 -6 -16 3 -4 -4 -10 -15 -13 -11 -3 -20 -1 -20 5 0 5 -5 6
-12 2 -7 -4 -8 -3 -4 4 4 6 -7 24 -24 40 -16 16 -36 45 -44 64 -8 19 -22 40
-31 48 -12 10 -13 16 -4 26 6 8 9 14 6 14 -3 0 -9 -5 -12 -10z m13 -75 c12
-19 22 -39 22 -44 0 -5 4 -11 8 -13 5 -1 23 -25 42 -53 18 -27 35 -52 36 -54
5 -6 68 42 127 98 42 40 60 52 68 44 15 -15 -14 -56 -73 -107 -45 -39 -52 -44
-84 -62 -16 -10 -19 -23 -19 -90 0 -72 -2 -79 -20 -79 -16 0 -21 9 -27 45 -3
25 -7 64 -7 86 -1 27 -9 51 -23 70 -25 31 -55 78 -88 138 -18 31 -19 40 -8 47
19 13 21 12 46 -26z"/>
<path d="M1050 1820 c-9 -6 -10 -10 -3 -10 6 0 15 5 18 10 8 12 4 12 -15 0z"/>
<path d="M1183 1803 c0 -9 4 -10 14 -2 7 6 13 12 13 14 0 1 -6 2 -13 2 -8 0
-14 -6 -14 -14z"/>
<path d="M1367 1809 c7 -7 15 -10 18 -7 3 3 -2 9 -12 12 -14 6 -15 5 -6 -5z"/>
<path d="M680 1790 c0 -11 5 -20 10 -20 6 0 10 9 10 20 0 11 -4 20 -10 20 -5
0 -10 -9 -10 -20z"/>
<path d="M1570 1785 c-11 -13 -10 -14 4 -9 9 3 16 10 16 15 0 13 -6 11 -20 -6z"/>
<path d="M1620 1790 c0 -5 4 -10 9 -10 6 0 13 5 16 10 3 6 -1 10 -9 10 -9 0
-16 -4 -16 -10z"/>
<path d="M2158 1793 c7 -3 16 -2 19 1 4 3 -2 6 -13 5 -11 0 -14 -3 -6 -6z"/>
<path d="M725 1780 c-3 -5 1 -10 10 -10 9 0 13 5 10 10 -3 6 -8 10 -10 10 -2
0 -7 -4 -10 -10z"/>
<path d="M2110 1786 c0 -2 7 -6 15 -10 8 -3 15 -1 15 4 0 6 -7 10 -15 10 -8 0
-15 -2 -15 -4z"/>
<path d="M1505 1770 c-3 -5 -2 -10 4 -10 5 0 13 5 16 10 3 6 2 10 -4 10 -5 0
-13 -4 -16 -10z"/>
<path d="M2065 1760 c-3 -5 -1 -10 4 -10 6 0 11 5 11 10 0 6 -2 10 -4 10 -3 0
-8 -4 -11 -10z"/>
<path d="M1392 1744 c10 -10 20 -16 22 -13 3 3 -5 11 -17 18 -21 13 -21 12 -5
-5z"/>
<path d="M2131 1751 c-8 -6 -9 -11 -3 -15 6 -3 14 -1 17 5 9 14 2 20 -14 10z"/>
<path d="M2163 1745 c0 -7 6 -11 14 -8 7 3 13 6 13 8 0 2 -6 5 -13 8 -8 3 -14
-1 -14 -8z"/>
<path d="M2267 1753 c-10 -15 24 -26 37 -12 8 9 7 10 -6 6 -9 -3 -18 -1 -21 6
-2 8 -5 8 -10 0z"/>
<path d="M670 1746 c0 -2 7 -7 16 -10 8 -3 12 -2 9 4 -6 10 -25 14 -25 6z"/>
<path d="M727 1736 c-14 -11 -15 -15 -4 -19 7 -3 19 4 25 14 14 22 5 24 -21 5z"/>
<path d="M2201 1737 c-8 -10 -7 -14 2 -14 8 0 14 6 14 14 0 7 -1 13 -2 13 -2
0 -8 -6 -14 -13z"/>
<path d="M2156 1702 c-2 -4 4 -8 14 -8 10 0 16 4 14 8 -3 4 -9 8 -14 8 -5 0
-11 -4 -14 -8z"/>
<path d="M700 1685 c-6 -8 -10 -19 -8 -24 1 -6 8 1 15 14 13 28 11 31 -7 10z"/>
<path d="M2072 1680 c12 -19 28 -27 28 -14 0 7 -27 34 -34 34 -4 0 -1 -9 6
-20z"/>
<path d="M1995 1680 c-3 -5 -1 -10 4 -10 6 0 11 5 11 10 0 6 -2 10 -4 10 -3 0
-8 -4 -11 -10z"/>
<path d="M2200 1675 c-7 -9 -19 -14 -26 -11 -8 3 -11 0 -7 -10 5 -13 10 -11
29 7 13 12 24 24 24 26 0 7 -8 2 -20 -12z"/>
<path d="M2130 1674 c0 -6 7 -19 16 -30 14 -18 14 -18 3 6 -14 31 -19 36 -19
24z"/>
<path d="M737 1653 c-10 -9 -9 -33 1 -33 4 0 8 9 8 20 0 23 0 22 -9 13z"/>
<path d="M2230 1636 c0 -2 7 -6 15 -10 8 -3 15 -1 15 4 0 6 -7 10 -15 10 -8 0
-15 -2 -15 -4z"/>
<path d="M1906 1622 c-3 -5 1 -9 9 -9 8 0 15 4 15 9 0 4 -4 8 -9 8 -6 0 -12
-4 -15 -8z"/>
<path d="M1985 1600 c-3 -5 -1 -10 4 -10 6 0 11 5 11 10 0 6 -2 10 -4 10 -3 0
-8 -4 -11 -10z"/>
<path d="M2015 1600 c-3 -5 -1 -10 4 -10 6 0 11 5 11 10 0 6 -2 10 -4 10 -3 0
-8 -4 -11 -10z"/>
<path d="M2074 1599 c-3 -6 2 -18 12 -27 17 -16 17 -16 5 0 -7 9 -10 22 -6 28
3 5 4 10 1 10 -3 0 -8 -5 -12 -11z"/>
<path d="M2239 1605 c-1 -3 -2 -8 -3 -12 -1 -5 -5 -14 -9 -20 -6 -9 -3 -11 7
-7 8 3 14 14 13 25 -1 18 -5 25 -8 14z"/>
<path d="M740 1590 c-8 -5 -12 -12 -9 -15 4 -3 12 1 19 10 14 17 11 19 -10 5z"/>
<path d="M1650 1580 c6 -11 12 -20 14 -20 2 0 2 9 -1 20 -3 11 -9 20 -15 20
-5 0 -4 -9 2 -20z"/>
<path d="M2159 1583 c-13 -15 -12 -15 9 -4 23 12 28 21 13 21 -5 0 -15 -7 -22
-17z"/>
<path d="M1545 1580 c-3 -5 -1 -10 4 -10 6 0 11 5 11 10 0 6 -2 10 -4 10 -3 0
-8 -4 -11 -10z"/>
<path d="M1926 1582 c-3 -5 1 -9 9 -9 8 0 12 4 9 9 -3 4 -7 8 -9 8 -2 0 -6 -4
-9 -8z"/>
<path d="M744 1554 c-18 -14 -18 -15 4 -4 12 6 22 13 22 15 0 8 -5 6 -26 -11z"/>
<path d="M1578 1563 c-26 -7 -22 -18 6 -18 15 0 22 5 19 13 -3 6 -6 11 -7 11
0 -1 -9 -3 -18 -6z"/>
<path d="M1480 1550 c-9 -6 -10 -10 -3 -10 6 0 15 5 18 10 8 12 4 12 -15 0z"/>
<path d="M2195 1550 c-3 -5 1 -10 10 -10 9 0 13 5 10 10 -3 6 -8 10 -10 10 -2
0 -7 -4 -10 -10z"/>
<path d="M1275 1540 c-3 -6 1 -7 9 -4 18 7 21 14 7 14 -6 0 -13 -4 -16 -10z"/>
<path d="M2160 1539 c0 -5 5 -7 10 -4 6 3 10 8 10 11 0 2 -4 4 -10 4 -5 0 -10
-5 -10 -11z"/>
<path d="M1185 1521 c-3 -5 -1 -12 4 -15 5 -3 11 1 15 9 6 16 -9 21 -19 6z"/>
<path d="M2195 1521 c-6 -11 13 -26 22 -17 4 3 1 6 -6 6 -7 0 -9 5 -6 10 3 6
4 10 1 10 -3 0 -7 -4 -11 -9z"/>
<path d="M2230 1520 c0 -5 7 -10 16 -10 8 0 12 5 9 10 -3 6 -10 10 -16 10 -5
0 -9 -4 -9 -10z"/>
<path d="M1560 1510 c0 -5 5 -10 11 -10 5 0 7 5 4 10 -3 6 -8 10 -11 10 -2 0
-4 -4 -4 -10z"/>
<path d="M2157 1505 c3 -8 9 -12 14 -9 12 7 11 11 -5 17 -10 4 -13 1 -9 -8z"/>
<path d="M2015 1500 c-3 -5 -1 -10 4 -10 6 0 11 5 11 10 0 6 -2 10 -4 10 -3 0
-8 -4 -11 -10z"/>
<path d="M1510 1479 c0 -5 5 -7 10 -4 6 3 10 8 10 11 0 2 -4 4 -10 4 -5 0 -10
-5 -10 -11z"/>
<path d="M2128 1483 c7 -3 16 -2 19 1 4 3 -2 6 -13 5 -11 0 -14 -3 -6 -6z"/>
<path d="M2176 1475 c-11 -8 -15 -15 -9 -15 6 0 16 7 23 15 16 19 11 19 -14 0z"/>
<path d="M1195 1470 c-3 -6 1 -7 9 -4 18 7 21 14 7 14 -6 0 -13 -4 -16 -10z"/>
<path d="M1243 1473 c-7 -3 -13 -10 -13 -15 0 -6 3 -8 7 -5 3 4 12 2 20 -4 10
-9 13 -8 13 4 0 19 -10 26 -27 20z"/>
<path d="M1985 1460 c3 -5 11 -10 16 -10 6 0 7 5 4 10 -3 6 -11 10 -16 10 -6
0 -7 -4 -4 -10z"/>
<path d="M1470 1451 c0 -6 4 -13 10 -16 6 -3 7 1 4 9 -7 18 -14 21 -14 7z"/>
<path d="M1160 1420 c-8 -5 -12 -12 -9 -15 4 -3 12 1 19 10 14 17 11 19 -10 5z"/>
<path d="M1646 1417 c3 -10 9 -15 12 -12 3 3 0 11 -7 18 -10 9 -11 8 -5 -6z"/>
<path d="M1465 1390 c-3 -6 1 -7 9 -4 18 7 21 14 7 14 -6 0 -13 -4 -16 -10z"/>
<path d="M1510 1390 c0 -5 5 -10 10 -10 6 0 10 5 10 10 0 6 -4 10 -10 10 -5 0
-10 -4 -10 -10z"/>
<path d="M1910 1385 c0 -8 5 -15 10 -15 6 0 10 7 10 15 0 8 -4 15 -10 15 -5 0
-10 -7 -10 -15z"/>
<path d="M1940 1390 c0 -5 5 -10 11 -10 5 0 7 5 4 10 -3 6 -8 10 -11 10 -2 0
-4 -4 -4 -10z"/>
<path d="M1226 1381 c-3 -4 6 -6 19 -3 14 2 25 6 25 8 0 8 -39 4 -44 -5z"/>
<path d="M1977 1353 c-5 -26 -4 -26 9 -8 16 22 18 35 5 35 -5 0 -11 -12 -14
-27z"/>
<path d="M2030 1369 c0 -5 5 -7 10 -4 6 3 10 8 10 11 0 2 -4 4 -10 4 -5 0 -10
-5 -10 -11z"/>
<path d="M1095 1350 c-3 -6 1 -7 9 -4 18 7 21 14 7 14 -6 0 -13 -4 -16 -10z"/>
<path d="M1190 1350 c0 -5 5 -10 11 -10 5 0 7 5 4 10 -3 6 -8 10 -11 10 -2 0
-4 -4 -4 -10z"/>
<path d="M1466 1343 c-6 -14 -5 -15 5 -6 7 7 10 15 7 18 -3 3 -9 -2 -12 -12z"/>
<path d="M1650 1351 c0 -6 4 -13 10 -16 6 -3 7 1 4 9 -7 18 -14 21 -14 7z"/>
<path d="M1875 1350 c-3 -5 1 -10 9 -10 9 0 16 5 16 10 0 6 -4 10 -9 10 -6 0
-13 -4 -16 -10z"/>
<path d="M1735 1340 c4 -6 11 -8 16 -5 14 9 11 15 -7 15 -8 0 -12 -5 -9 -10z"/>
<path d="M1167 1325 c-4 -8 -3 -16 1 -19 4 -3 9 4 9 15 2 23 -3 25 -10 4z"/>
<path d="M1470 1305 c-30 -32 -21 -32 16 0 16 14 24 25 18 25 -6 0 -21 -11
-34 -25z"/>
<path d="M1525 1319 c-11 -17 -2 -18 19 -3 17 12 17 14 4 14 -9 0 -20 -5 -23
-11z"/>
<path d="M1425 1310 c4 -6 11 -8 16 -5 14 9 11 15 -7 15 -8 0 -12 -5 -9 -10z"/>
<path d="M1805 1310 c4 -6 11 -8 16 -5 14 9 11 15 -7 15 -8 0 -12 -5 -9 -10z"/>
<path d="M1851 1301 c-10 -7 -7 -9 12 -8 14 1 23 5 20 10 -6 9 -15 9 -32 -2z"/>
<path d="M1485 1278 l-20 -21 23 12 c12 6 22 16 22 21 0 13 -2 12 -25 -12z"/>
<path d="M1650 1280 c-12 -8 -10 -10 8 -10 13 0 20 4 17 10 -7 12 -6 12 -25 0z"/>
<path d="M1100 1260 c0 -5 5 -10 11 -10 5 0 7 5 4 10 -3 6 -8 10 -11 10 -2 0
-4 -4 -4 -10z"/>
<path d="M1327 1255 c-8 -8 -17 -12 -19 -10 -3 3 -5 -2 -5 -10 0 -12 5 -11 22
5 12 11 25 17 30 13 4 -5 5 -2 1 5 -9 15 -11 15 -29 -3z"/>
<path d="M1866 1255 c-3 -8 -1 -15 4 -15 13 0 22 18 11 24 -5 3 -11 -1 -15 -9z"/>
<path d="M1430 1242 c0 -6 -8 -13 -17 -15 -16 -4 -16 -5 -1 -6 18 -1 34 16 24
26 -3 4 -6 1 -6 -5z"/>
<path d="M1660 1240 c0 -5 5 -10 10 -10 6 0 10 5 10 10 0 6 -4 10 -10 10 -5 0
-10 -4 -10 -10z"/>
<path d="M1170 1220 c0 -5 5 -10 10 -10 6 0 10 5 10 10 0 6 -4 10 -10 10 -5 0
-10 -4 -10 -10z"/>
<path d="M1585 1220 c-3 -5 -1 -10 4 -10 6 0 11 5 11 10 0 6 -2 10 -4 10 -3 0
-8 -4 -11 -10z"/>
<path d="M1726 1214 c-5 -13 -4 -14 7 -6 8 7 17 9 20 5 4 -3 7 -1 7 5 0 18
-27 14 -34 -4z"/>
<path d="M1470 1200 c-9 -6 -10 -10 -3 -10 6 0 15 5 18 10 8 12 4 12 -15 0z"/>
<path d="M1610 1189 c0 -5 5 -9 10 -9 6 0 12 0 15 0 14 0 8 13 -7 16 -10 1
-18 -2 -18 -7z"/>
<path d="M1670 1185 c-11 -13 -10 -14 4 -9 9 3 16 10 16 15 0 13 -6 11 -20 -6z"/>
<path d="M1496 1175 c4 -8 8 -15 10 -15 2 0 4 7 4 15 0 8 -4 15 -10 15 -5 0
-7 -7 -4 -15z"/>
<path d="M1730 1180 c0 -5 5 -10 11 -10 5 0 7 5 4 10 -3 6 -8 10 -11 10 -2 0
-4 -4 -4 -10z"/>
<path d="M1250 1163 c0 -10 4 -14 8 -8 4 6 11 13 16 18 5 4 2 7 -7 7 -10 0
-17 -8 -17 -17z"/>
<path d="M1480 1150 c0 -5 5 -10 11 -10 5 0 7 5 4 10 -3 6 -8 10 -11 10 -2 0
-4 -4 -4 -10z"/>
<path d="M1577 1149 c7 -7 15 -10 18 -7 3 3 -2 9 -12 12 -14 6 -15 5 -6 -5z"/>
<path d="M1376 1112 c-3 -5 0 -9 7 -9 7 0 17 -2 22 -3 21 -5 45 0 45 10 0 7
-6 7 -19 0 -13 -7 -22 -7 -26 0 -8 12 -22 13 -29 2z"/>
<path d="M1547 1069 c7 -7 15 -10 18 -7 3 3 -2 9 -12 12 -14 6 -15 5 -6 -5z"/>
<path d="M1600 1060 c-9 -6 -10 -10 -3 -10 6 0 15 5 18 10 8 12 4 12 -15 0z"/>
<path d="M1405 1030 c3 -5 8 -10 11 -10 2 0 4 5 4 10 0 6 -5 10 -11 10 -5 0
-7 -4 -4 -10z"/>
<path d="M1510 981 c0 -4 11 -6 25 -3 14 2 25 6 25 8 0 2 -11 4 -25 4 -14 0
-25 -4 -25 -9z"/>
<path d="M1486 953 c-6 -14 -5 -15 5 -6 7 7 10 15 7 18 -3 3 -9 -2 -12 -12z"/>
<path d="M1513 943 c-13 -8 -23 -20 -23 -25 0 -13 37 9 44 27 7 18 7 18 -21
-2z"/>
<path d="M915 1670 c3 -5 8 -10 11 -10 2 0 4 5 4 10 0 6 -5 10 -11 10 -5 0 -7
-4 -4 -10z"/>
<path d="M970 1640 c0 -5 5 -10 11 -10 5 0 7 5 4 10 -3 6 -8 10 -11 10 -2 0
-4 -4 -4 -10z"/>
<path d="M895 1630 c-3 -6 1 -7 9 -4 18 7 21 14 7 14 -6 0 -13 -4 -16 -10z"/>
<path d="M901 1588 c-1 -20 24 -24 35 -6 5 7 2 9 -9 5 -9 -3 -18 -1 -21 6 -2
7 -5 4 -5 -5z"/>
<path d="M1040 1555 c0 -8 2 -15 4 -15 2 0 6 7 10 15 3 8 1 15 -4 15 -6 0 -10
-7 -10 -15z"/>
<path d="M904 1519 c-19 -22 -19 -22 3 -10 24 12 39 31 25 31 -5 0 -17 -10
-28 -21z"/>
<path d="M2140 2081 c-88 -95 -185 -219 -178 -227 3 -2 32 31 66 73 33 43 82
101 108 128 26 28 61 65 77 83 17 17 26 32 20 32 -7 0 -48 -40 -93 -89z"/>
<path d="M2260 2145 c0 -4 8 -19 18 -33 10 -15 22 -35 25 -45 6 -15 11 -14 51
15 25 18 45 36 45 39 1 4 -19 9 -44 12 -25 4 -56 9 -70 13 -14 3 -25 3 -25 -1z
m78 -45 c-9 -13 -14 -16 -20 -7 -4 6 -2 15 5 19 21 14 28 9 15 -12z"/>
<path d="M1750 1554 c0 -8 5 -12 10 -9 6 3 10 10 10 16 0 5 -4 9 -10 9 -5 0
-10 -7 -10 -16z"/>
<path d="M395 971 c-22 -8 -41 -19 -43 -23 -2 -4 -26 -10 -53 -14 -47 -6 -60
-16 -40 -29 6 -3 19 -25 31 -48 17 -33 21 -57 18 -107 l-3 -64 -55 -12 c-30
-7 -63 -11 -73 -8 -16 5 -18 1 -15 -28 3 -32 4 -33 43 -30 22 2 44 7 50 12 6
5 30 12 53 16 23 4 42 10 42 15 0 5 27 9 60 9 33 0 60 -4 60 -8 0 -11 103 -32
113 -22 16 14 -21 67 -50 73 -40 8 -175 -14 -195 -31 -10 -8 -18 -12 -18 -7 0
4 7 13 16 20 9 6 18 27 19 46 2 19 4 36 4 39 1 2 6 -1 13 -8 17 -17 53 -15 70
6 8 9 20 37 27 62 6 25 17 55 22 66 9 17 7 28 -6 48 -26 39 -45 45 -90 27z
m65 -30 c0 -5 -4 -11 -10 -13 -5 -1 -17 -29 -25 -62 -19 -72 -21 -76 -46 -76
-13 0 -19 7 -19 24 0 13 -7 29 -15 36 -22 18 -3 44 49 65 25 11 46 23 46 27 0
4 5 8 10 8 6 0 10 -4 10 -9z m-136 -46 c-4 -8 -8 -15 -10 -15 -2 0 -4 7 -4 15
0 8 4 15 10 15 5 0 7 -7 4 -15z m144 -10 c-3 -3 -9 2 -12 12 -6 14 -5 15 5 6
7 -7 10 -15 7 -18z m77 -225 c-3 -5 -10 -10 -16 -10 -5 0 -9 5 -9 10 0 6 7 10
16 10 8 0 12 -4 9 -10z m-285 -15 c-7 -9 -15 -13 -19 -10 -3 3 1 10 9 15 21
14 24 12 10 -5z m-40 -10 c-7 -9 -15 -13 -19 -10 -3 3 1 10 9 15 21 14 24 12
10 -5z"/>
<path d="M2652 955 c-18 -8 -31 -19 -28 -24 5 -8 22 -6 86 10 9 2 16 -4 18
-16 3 -21 3 -22 -85 -26 -10 -1 -29 2 -43 7 -24 7 -24 6 -9 -12 9 -10 19 -37
21 -59 3 -22 8 -47 12 -57 5 -11 1 -18 -13 -23 -12 -3 -21 -11 -21 -16 0 -16
37 -10 64 12 15 12 30 19 33 16 10 -11 -9 -28 -67 -57 -32 -16 -62 -34 -65
-40 -15 -23 7 -22 57 3 29 14 66 29 81 33 l28 6 -3 -68 c-3 -67 -4 -69 -28
-66 -26 3 -78 47 -68 57 3 3 13 -1 21 -10 19 -19 47 -20 47 -1 0 37 -71 48
-78 12 -3 -12 15 -36 53 -72 31 -30 60 -54 64 -54 18 0 32 73 26 134 -4 37 -3
66 2 69 6 4 27 2 47 -4 40 -11 57 -6 39 12 -7 7 -39 11 -72 10 -39 -1 -61 3
-61 10 0 6 9 13 20 16 22 6 26 18 10 28 -7 4 -6 14 1 28 7 11 18 44 25 72 13
47 13 51 -7 68 -25 21 -62 21 -107 2z m78 -82 c0 -16 -16 -30 -37 -37 -27 -9
-29 1 -6 26 16 18 43 25 43 11z m-70 -17 c0 -8 -4 -18 -10 -21 -5 -3 -10 3
-10 14 0 12 5 21 10 21 6 0 10 -6 10 -14z m4 -67 c-12 -13 -20 -16 -22 -9 -3
7 2 16 9 21 25 16 32 9 13 -12z m54 9 c-3 -7 -13 -15 -24 -17 -16 -3 -17 -1
-5 13 16 19 34 21 29 4z"/>
<path d="M2495 914 c-11 -8 -30 -12 -42 -9 -33 8 -28 -7 12 -33 l34 -24 -26
-40 c-22 -32 -31 -38 -50 -33 -27 6 -30 -3 -6 -20 16 -12 16 -15 -2 -50 -11
-20 -27 -41 -36 -45 -15 -9 -19 -43 -7 -55 3 -4 21 15 39 40 l33 47 15 -31
c16 -34 31 -41 31 -13 0 11 12 22 34 30 27 10 32 17 29 35 -3 14 2 29 11 36
12 11 14 17 5 27 -14 17 -41 18 -57 2 -9 -9 -12 -8 -12 4 0 9 16 34 35 55 39
43 44 67 16 83 -25 13 -32 12 -56 -6z m34 -35 c-8 -5 -10 -9 -6 -9 5 0 5 -5 1
-11 -4 -8 -10 -6 -17 6 -10 19 9 39 26 28 5 -3 3 -9 -4 -14z m-11 -141 c-6
-16 -36 -34 -44 -26 -3 4 -4 14 -1 23 7 17 51 21 45 3z"/>
<path d="M2154 851 c27 -29 28 -29 8 -40 -12 -6 -30 -11 -41 -11 -22 0 -28
-14 -11 -25 18 -11 12 -55 -7 -55 -10 0 -28 -3 -41 -6 -24 -7 -24 2 0 52 13
27 -5 64 -31 64 -10 0 -27 -11 -37 -25 -10 -14 -25 -25 -33 -25 -11 0 -11 -3
-1 -15 7 -8 18 -15 24 -15 13 -1 47 -65 39 -74 -10 -10 -33 15 -33 35 0 11 -6
19 -14 19 -27 0 -36 -206 -12 -265 19 -44 36 -45 36 -1 0 18 2 55 5 82 l5 49
-13 -39 c-8 -23 -15 -34 -18 -25 -7 19 1 129 9 129 4 0 15 -14 25 -32 21 -36
36 -28 40 20 1 24 8 33 27 38 14 4 29 6 35 5 5 -1 15 6 22 15 13 17 14 17 31
1 16 -17 16 -18 -1 -11 -11 4 -24 -2 -37 -17 -11 -14 -19 -18 -20 -11 0 7 -4
10 -10 7 -13 -8 -13 -62 0 -70 6 -4 9 -14 8 -23 -2 -12 7 -18 32 -23 21 -3 29
-8 20 -11 -23 -10 -73 -22 -90 -22 -8 -1 -16 -9 -18 -20 -4 -16 0 -18 35 -12
21 4 42 12 48 17 22 22 35 8 36 -38 0 -64 14 -132 22 -113 4 8 8 49 9 90 l3
75 53 -1 c28 -1 52 1 52 5 0 17 -27 31 -62 31 -41 0 -54 23 -19 33 23 6 46 76
31 91 -21 21 -10 36 25 36 35 0 43 12 26 39 -6 10 -13 11 -29 2 -11 -6 -28
-11 -36 -11 -20 0 -21 36 -1 44 20 7 19 25 -2 33 -10 4 -28 17 -40 30 -13 13
-34 23 -49 23 l-28 0 28 -29z m-120 -84 c-7 -18 -24 -23 -24 -8 0 22 13 42 22
33 5 -5 6 -16 2 -25z m156 0 c0 -14 -20 -37 -32 -37 -12 0 -10 24 4 38 16 16
28 15 28 -1z m50 -36 c0 -10 -24 -21 -43 -21 -7 0 -3 7 7 15 22 17 36 19 36 6z
m-10 -76 c0 -13 -7 -31 -16 -40 -20 -20 -32 -11 -14 10 19 23 -1 40 -29 25
-12 -6 -27 -9 -34 -7 -7 3 8 14 33 25 51 22 60 20 60 -13z m-64 -44 c-10 -16
-46 -20 -46 -5 0 8 10 14 26 14 14 0 23 -4 20 -9z"/>
<path d="M760 848 c0 -8 9 -24 20 -36 28 -30 25 -39 -17 -53 -21 -6 -44 -16
-50 -21 -9 -7 -19 -3 -34 13 l-20 24 6 -28 c4 -20 -1 -40 -15 -64 -21 -36 -26
-78 -10 -103 12 -19 14 -16 39 61 l22 67 52 8 c29 4 59 8 68 9 8 0 28 11 44
23 29 23 69 29 80 12 6 -10 -102 -95 -135 -105 -17 -6 -29 -25 -15 -25 3 0 48
20 101 45 52 25 102 45 110 45 21 0 17 18 -11 45 -19 20 -34 25 -77 25 -42 0
-56 4 -66 20 -7 11 -23 20 -36 20 -14 0 -32 7 -40 16 -13 12 -16 13 -16 2z
m90 -78 c0 -5 -7 -10 -15 -10 -8 0 -15 5 -15 10 0 6 7 10 15 10 8 0 15 -4 15
-10z"/>
<path d="M1294 689 c-4 -7 1 -16 10 -21 28 -16 19 -47 -16 -56 -32 -8 -33 -9
-10 -21 12 -6 22 -17 22 -24 0 -16 -67 -50 -81 -42 -5 4 -9 -5 -9 -19 0 -14 2
-26 5 -26 2 0 38 18 80 40 69 37 115 50 115 34 0 -12 -34 -33 -52 -34 -31 0
-19 -20 11 -20 17 0 33 5 36 10 3 6 17 10 31 10 17 0 24 5 24 20 0 26 -35 43
-76 37 -48 -8 -46 20 1 29 19 3 35 12 35 19 0 16 -35 29 -50 20 -6 -3 -10 4
-10 18 0 33 -49 52 -66 26z m61 -70 c-4 -5 -12 -9 -18 -8 -9 0 -8 2 1 6 6 2 9
10 6 15 -4 7 -2 8 5 4 6 -4 9 -12 6 -17z"/>
<path d="M1558 641 c3 -21 -3 -35 -23 -55 -25 -25 -26 -30 -15 -57 7 -16 18
-28 24 -26 6 1 22 26 36 54 14 28 34 56 45 61 27 14 185 25 185 13 0 -5 -17
-19 -37 -31 -30 -18 -41 -20 -62 -10 -22 10 -23 9 -11 -4 11 -14 9 -16 -9 -16
-11 0 -21 5 -21 10 0 6 -7 10 -15 10 -12 0 -15 -13 -15 -58 0 -32 -5 -63 -11
-69 -15 -15 -2 -53 18 -53 9 0 24 6 32 14 21 19 95 36 112 26 15 -10 14 -82
-2 -112 -10 -19 -17 -20 -81 -15 l-69 6 24 -20 c14 -10 28 -19 32 -19 4 0 22
-7 40 -16 32 -15 36 -15 59 3 34 25 52 60 59 116 6 39 3 51 -13 67 -26 26 -61
34 -121 27 -44 -5 -49 -4 -49 13 0 15 7 20 25 20 37 0 75 21 75 41 0 17 16 23
89 32 25 3 23 26 -4 53 -26 26 -29 27 -107 20 -44 -4 -97 -13 -119 -20 -36
-13 -40 -12 -50 5 -15 28 -26 23 -21 -10z m222 -345 c0 -3 -4 -8 -10 -11 -5
-3 -10 -1 -10 4 0 6 5 11 10 11 6 0 10 -2 10 -4z"/>
<path d="M850 630 c-30 -11 -72 -19 -92 -19 -43 -1 -54 -13 -32 -35 20 -20 29
-20 65 1 15 9 32 14 36 10 13 -14 5 -107 -12 -133 -14 -21 -22 -25 -46 -20
-45 9 -34 -9 18 -30 27 -11 51 -21 56 -22 19 -9 38 73 36 152 l-2 81 34 0 c19
0 35 3 37 8 10 32 -16 34 -98 7z m-15 -210 c-3 -5 -11 -10 -16 -10 -6 0 -7 5
-4 10 3 6 11 10 16 10 6 0 7 -4 4 -10z"/>
<path d="M1130 645 c0 -3 6 -15 13 -26 11 -18 8 -23 -18 -44 -41 -33 -27 -40
26 -12 24 13 49 22 56 20 21 -7 26 19 7 37 -18 16 -84 36 -84 25z"/>
<path d="M1105 499 c-16 -10 -40 -19 -52 -19 -13 0 -23 -3 -23 -7 1 -27 49
-56 71 -42 26 16 30 10 24 -33 -8 -54 6 -122 26 -126 10 -2 18 14 28 50 24 96
25 101 12 94 -6 -4 -11 -15 -11 -25 0 -9 -7 -26 -15 -37 -14 -17 -15 -15 -9
31 4 28 11 61 16 74 11 31 1 61 -20 60 -9 0 -30 -9 -47 -20z m35 -29 c0 -5 -5
-10 -11 -10 -5 0 -7 5 -4 10 3 6 8 10 11 10 2 0 4 -4 4 -10z"/>
<path d="M1270 485 c0 -8 5 -15 10 -15 19 0 10 -22 -10 -27 -26 -7 -22 -34 7
-48 20 -10 17 -12 -28 -28 -27 -10 -49 -22 -49 -27 0 -17 43 -11 78 10 38 24
42 24 42 7 0 -16 -47 -61 -75 -72 -18 -7 -18 -9 -3 -12 31 -8 72 21 93 64 20
42 21 42 72 43 44 0 51 3 46 16 -5 13 -16 15 -50 11 -38 -4 -43 -2 -37 12 16
38 17 71 0 71 -11 0 -16 -9 -16 -28 0 -35 -9 -45 -27 -30 -11 9 -11 14 3 29
21 23 10 39 -27 39 -19 0 -29 -5 -29 -15z m70 -85 c0 -5 -7 -10 -16 -10 -8 0
-12 5 -9 10 3 6 10 10 16 10 5 0 9 -4 9 -10z"/>
<path d="M1698 404 c-13 -13 -123 -32 -134 -23 -23 19 -43 -41 -22 -67 6 -9
26 -4 71 18 34 17 80 31 102 32 37 2 41 6 37 36 -2 11 -45 14 -54 4z"/>
<path d="M1386 318 c28 -34 63 -63 69 -57 2 2 1 17 -2 32 -6 28 -45 57 -78 57
-13 0 -11 -7 11 -32z"/>
</g>
</svg>
